<svg width="32" height="33" viewBox="0 0 32 33" fill="none" xmlns="http://www.w3.org/2000/svg">
<g opacity="0.5">
<path d="M15.9971 3.63379C10.7844 3.63379 6.54108 7.87713 6.54108 13.0898C6.54107 22.2619 15.464 29.2349 15.464 29.2349C15.6163 29.3564 15.8054 29.4226 16.0003 29.4226C16.1951 29.4226 16.3842 29.3564 16.5365 29.2349C16.5365 29.2349 25.4595 22.2619 25.4595 13.0898C25.4595 7.87713 21.2098 3.63379 15.9971 3.63379ZM15.9971 5.35364C20.2806 5.35364 23.7396 8.80637 23.7396 13.0898C23.7397 20.5934 16.9451 26.5217 16.0035 27.3246C15.0663 26.5257 8.26093 20.5963 8.26093 13.0898C8.26093 8.80637 11.7137 5.35364 15.9971 5.35364Z" fill="#14191B"/>
<path d="M15.9971 8.79346C13.6332 8.79346 11.7006 10.7261 11.7006 13.0899C11.7006 15.4538 13.6332 17.3927 15.9971 17.3927C18.361 17.3927 20.2999 15.4538 20.2999 13.0899C20.2999 10.7261 18.3609 8.79346 15.9971 8.79346ZM15.9971 10.5133C17.4317 10.5133 18.58 11.6553 18.58 13.0899C18.5801 14.5245 17.4317 15.6729 15.9971 15.6729C14.5625 15.6729 13.4205 14.5245 13.4205 13.0899C13.4205 11.6553 14.5625 10.5133 15.9971 10.5133Z" fill="#14191B"/>
</g>
</svg>
