<svg width="32" height="32" viewBox="0 0 32 32" fill="none" xmlns="http://www.w3.org/2000/svg">
<g opacity="0.5">
<path d="M18.4 22.4H6.39999L6.39759 10.3248L15.5448 16.6576C15.6785 16.7502 15.8373 16.7997 16 16.7997C16.1626 16.7997 16.3214 16.7502 16.4552 16.6576L25.6 10.328V17.6H27.2V9.6C27.1994 9.17585 27.0306 8.76925 26.7307 8.46933C26.4307 8.16941 26.0241 8.00063 25.6 8H6.39999C5.97577 8.00042 5.56905 8.16913 5.26908 8.4691C4.96912 8.76906 4.80041 9.17578 4.79999 9.6V22.4C4.80062 22.8242 4.9694 23.2308 5.26932 23.5307C5.56924 23.8306 5.97584 23.9994 6.39999 24H18.4V22.4ZM23.8392 9.6L16 15.0272L8.16079 9.6H23.8392Z" fill="#14191B"/>
<path d="M24 25.6002C25.7673 25.6002 27.2 24.1675 27.2 22.4002C27.2 20.6329 25.7673 19.2002 24 19.2002C22.2327 19.2002 20.8 20.6329 20.8 22.4002C20.8 24.1675 22.2327 25.6002 24 25.6002Z" fill="#14191B"/>
</g>
</svg>
