<svg width="32" height="32" viewBox="0 0 32 32" fill="none" xmlns="http://www.w3.org/2000/svg">
<g opacity="0.5">
<path d="M16 2.66211C16.5523 2.66211 17 3.10983 17 3.66211V5.33318H19.6667C20.9554 5.33318 22 6.37784 22 7.66651V14.6665H25C26.2887 14.6665 27.3334 15.7112 27.3334 16.9998V26.9998C27.3334 28.2885 26.2887 29.3332 25 29.3332H13.006H13H7.00002C5.71135 29.3332 4.66669 28.2885 4.66669 26.9998V15.7606C4.66669 14.9354 5.10254 14.1717 5.81298 13.7518L10 11.2777V7.66651C10 6.37784 11.0447 5.33318 12.3334 5.33318H15V3.66211C15 3.10983 15.4478 2.66211 16 2.66211ZM12 10.6911C13.0796 10.8511 14 11.7665 14 13.0031V27.3332H18V16.9998C18 15.8244 18.8692 14.8518 20 14.6901V7.66651C20 7.48242 19.8508 7.33318 19.6667 7.33318H16.0126L16 7.33326L15.9875 7.33318H12.3334C12.1493 7.33318 12 7.48242 12 7.66651V10.6911ZM20.3334 16.6665C20.1492 16.6665 20 16.8157 20 16.9998V27.3332H25C25.1842 27.3332 25.3334 27.184 25.3334 26.9998V16.9998C25.3334 16.8157 25.1842 16.6665 25 16.6665H20.3334ZM11.4971 12.7161L6.83045 15.4737C6.72895 15.5337 6.66669 15.6428 6.66669 15.7606V26.9998C6.66669 27.184 6.81593 27.3332 7.00002 27.3332H12V13.0031C12 12.745 11.7193 12.5848 11.4971 12.7161Z" fill="#212121"/>
</g>
</svg>
