<svg width="40" height="41" viewBox="0 0 40 41" fill="none" xmlns="http://www.w3.org/2000/svg">
<path opacity="0.14" d="M39.6104 18.3833V22.6625C38.2942 29.7125 34.7803 34.6811 29.0684 37.5683C16.6039 43.8771 2.95231 35.9135 0.900696 22.4944V18.2282C4.65553 -4.7446 36.1007 -4.64118 39.6104 18.3833ZM37.8426 20.3613C37.8426 15.688 35.9897 11.2061 32.6915 7.90161C29.3933 4.59709 24.9199 2.74063 20.2555 2.74063C17.946 2.74063 15.659 3.1964 13.5252 4.08193C11.3915 4.96745 9.45269 6.26538 7.81958 7.90161C4.52136 11.2061 2.66844 15.688 2.66844 20.3613C2.66844 25.0346 4.52136 29.5165 7.81958 32.821C11.1178 36.1255 15.5911 37.982 20.2555 37.982C22.5651 37.982 24.8521 37.5262 26.9858 36.6407C29.1196 35.7552 31.0584 34.4572 32.6915 32.821C34.3246 31.1848 35.6201 29.2423 36.5039 27.1044C37.3877 24.9666 37.8426 22.6753 37.8426 20.3613Z" fill="#5A7B85"/>
<path d="M21.2878 22.4536L21.3394 31.2278C21.3394 31.5289 21.1889 31.6794 20.8878 31.6794L17.5717 31.6923C17.2792 31.6923 17.133 31.5504 17.133 31.2665L17.1459 22.5698C17.1459 22.002 16.862 21.7138 16.2942 21.7052L15.6749 21.6923C15.2018 21.6837 14.9652 21.4472 14.9652 20.9827L14.9523 18.9569C14.9493 18.7671 15.0138 18.5825 15.1344 18.436C15.2549 18.2894 15.4236 18.1905 15.6104 18.1569C15.8082 18.1224 16.0061 18.1052 16.2039 18.1052C16.9867 18.1052 17.3308 17.7181 17.2362 16.9439C16.591 11.9504 20.1136 11.1633 23.8813 11.5762C24.3287 11.6278 24.5523 11.8773 24.5523 12.3246V14.2214C24.5523 14.6945 24.3201 14.9439 23.8555 14.9698L22.3588 15.0601C21.9373 15.0859 21.6577 15.3009 21.5201 15.7052C21.3222 16.2816 21.2276 16.8837 21.2362 17.5117C21.2448 17.9762 21.477 18.2042 21.933 18.1956L23.8555 18.1827C23.9419 18.1808 24.0276 18.1967 24.1076 18.2293C24.1876 18.2619 24.26 18.3105 24.3204 18.3721C24.3809 18.4338 24.4281 18.5072 24.4591 18.5878C24.4901 18.6684 24.5042 18.7544 24.5007 18.8407L24.4104 21.073C24.3932 21.4859 24.1824 21.6923 23.7781 21.6923L22.0749 21.6794C21.5502 21.6794 21.2878 21.9375 21.2878 22.4536Z" fill="#5A7B85"/>
</svg>
