<svg width="32" height="32" viewBox="0 0 32 32" fill="none" xmlns="http://www.w3.org/2000/svg">
<g opacity="0.5">
<path fill-rule="evenodd" clip-rule="evenodd" d="M7.24385 2.55273C7.76199 2.55273 8.18204 2.97278 8.18204 3.49092V4.84835L10.1505 4.45466C12.3936 4.00604 14.7188 4.21952 16.8428 5.06909L17.0974 5.17099C18.8672 5.87889 20.815 6.01109 22.6643 5.54879C24.2036 5.16395 25.6949 6.32825 25.6949 7.91502V17.1305C25.6949 18.3671 24.8534 19.4449 23.6537 19.7447L23.3855 19.8117C20.9807 20.4129 18.4474 20.2411 16.1459 19.3204C14.3598 18.606 12.4047 18.4265 10.5184 18.8038L8.18204 19.2711V28.5092C8.18204 29.0274 7.76199 29.4474 7.24385 29.4474C6.72571 29.4474 6.30566 29.0274 6.30566 28.5092V3.49092C6.30566 2.97278 6.72571 2.55273 7.24385 2.55273ZM8.18204 17.3574L10.1505 16.9638C12.3936 16.5152 14.7188 16.7287 16.8428 17.5782C18.778 18.3524 20.9082 18.4969 22.9305 17.9914L23.1987 17.9244C23.5629 17.8333 23.8185 17.5061 23.8185 17.1305V7.91502C23.8185 7.54896 23.4745 7.28036 23.1193 7.36915C20.8875 7.92711 18.5366 7.76755 16.4006 6.91315L16.1459 6.81126C14.3598 6.09687 12.4047 5.91736 10.5184 6.2946L8.18204 6.76188V17.3574Z" fill="#1C274C"/>
</g>
</svg>
