<svg width="40" height="41" viewBox="0 0 40 41" fill="none" xmlns="http://www.w3.org/2000/svg">
<path opacity="0.14" d="M39.6104 18.3943V22.6589C38.4233 29.2239 35.2491 34.0097 30.0878 37.0165C17.5717 44.3181 3.02973 36.3962 0.900696 22.4909V18.2263C4.66844 -4.72517 36.1007 -4.60886 39.6104 18.3943ZM37.8426 20.3715C37.8426 15.7 35.9897 11.2197 32.6915 7.9164C29.3933 4.6131 24.9199 2.75732 20.2555 2.75732C17.946 2.75732 15.659 3.21292 13.5252 4.09812C11.3915 4.98332 9.45269 6.28077 7.81958 7.9164C4.52136 11.2197 2.66844 15.7 2.66844 20.3715C2.66844 25.0431 4.52136 29.5234 7.81958 32.8267C11.1178 36.13 15.5911 37.9857 20.2555 37.9857C22.5651 37.9857 24.8521 37.5301 26.9858 36.6449C29.1196 35.7598 31.0584 34.4623 32.6915 32.8267C34.3246 31.191 35.6201 29.2493 36.5039 27.1122C37.3877 24.9751 37.8426 22.6847 37.8426 20.3715Z" fill="#5A7B85"/>
<path fill-rule="evenodd" clip-rule="evenodd" d="M10.5756 14.7222C10.5756 12.513 12.3664 10.7222 14.5756 10.7222H25.9356C28.1447 10.7222 29.9356 12.513 29.9356 14.7222V26.0822C29.9356 28.2913 28.1447 30.0822 25.9356 30.0822H14.5756C12.3664 30.0822 10.5756 28.2913 10.5756 26.0822V14.7222ZM20.2556 23.5634C22.0015 23.5634 23.4168 22.1481 23.4168 20.4021C23.4168 18.6562 22.0015 17.2408 20.2556 17.2408C18.5096 17.2408 17.0943 18.6562 17.0943 20.4021C17.0943 22.1481 18.5096 23.5634 20.2556 23.5634ZM20.2556 25.5634C23.1061 25.5634 25.4168 23.2526 25.4168 20.4021C25.4168 17.5516 23.1061 15.2408 20.2556 15.2408C17.4051 15.2408 15.0943 17.5516 15.0943 20.4021C15.0943 23.2526 17.4051 25.5634 20.2556 25.5634ZM26.499 15.5635C27.0334 15.5635 27.4667 15.1303 27.4667 14.5958C27.4667 14.0613 27.0334 13.6281 26.499 13.6281C25.9645 13.6281 25.5312 14.0613 25.5312 14.5958C25.5312 15.1303 25.9645 15.5635 26.499 15.5635Z" fill="#5A7B85"/>
</svg>
