<svg width="37" height="36" viewBox="0 0 37 36" fill="none" xmlns="http://www.w3.org/2000/svg">
<circle cx="18.9902" cy="18" r="18" fill="#BEE2E5"/>
<path d="M32.9906 23C30.2406 23 27.9906 20.75 27.9906 18H8.39062V28.6C11.0906 31.3 14.8406 33 18.9906 33C25.5406 33 31.0906 28.8 33.1406 23H32.9906Z" fill="#ED4C5C"/>
<path d="M32.9906 13H33.1406C31.0906 7.2 25.5406 3 18.9906 3C14.8406 3 11.0906 4.7 8.39062 7.4V18H27.9906C27.9906 15.25 30.2406 13 32.9906 13Z" fill="#359662"/>
<path d="M33.1406 13H8.39062V23H33.1406C33.6906 21.45 33.9906 19.75 33.9906 18C33.9906 16.25 33.6906 14.55 33.1406 13Z" fill="url(#paint0_linear_4_2789)"/>
<path d="M8.39023 7.3999C5.69023 10.0999 3.99023 13.8499 3.99023 17.9999C3.99023 22.1499 5.69023 25.8999 8.39023 28.5999L13.9902 22.9999V12.9999L8.39023 7.3999Z" fill="#25292D"/>
<defs>
<linearGradient id="paint0_linear_4_2789" x1="7.42693" y1="8.03663" x2="33.2355" y2="23.9365" gradientUnits="userSpaceOnUse">
<stop stop-color="#D8D7D7"/>
<stop offset="0.784" stop-color="white"/>
</linearGradient>
</defs>
</svg>
