<svg width="40" height="41" viewBox="0 0 40 41" fill="none" xmlns="http://www.w3.org/2000/svg">
<path opacity="0.14" d="M39.6104 18.3801V22.6196C38.3459 30.0819 34.6039 35.196 28.3846 37.962C15.9071 43.507 3.04263 35.6742 0.900696 22.4904V18.2121C4.65553 -4.7433 36.0749 -4.6399 39.6104 18.3801ZM37.8426 20.3577C37.8426 15.6853 35.9897 11.2043 32.6915 7.90043C29.3933 4.59656 24.9199 2.74047 20.2555 2.74047C17.946 2.74047 15.659 3.19615 13.5252 4.0815C11.3915 4.96685 9.45269 6.26452 7.81958 7.90043C4.52136 11.2043 2.66844 15.6853 2.66844 20.3577C2.66844 25.0301 4.52136 29.5111 7.81958 32.815C11.1178 36.1188 15.5911 37.9749 20.2555 37.9749C22.5651 37.9749 24.8521 37.5192 26.9858 36.6339C29.1196 35.7486 31.0584 34.4509 32.6915 32.815C34.3246 31.1791 35.6201 29.2369 36.5039 27.0995C37.3877 24.9621 37.8426 22.6712 37.8426 20.3577Z" fill="#5A7B85"/>
<path d="M13.5201 15.6794C14.6531 15.6794 15.5717 14.7609 15.5717 13.6278C15.5717 12.4947 14.6531 11.5762 13.5201 11.5762C12.387 11.5762 11.4684 12.4947 11.4684 13.6278C11.4684 14.7609 12.387 15.6794 13.5201 15.6794Z" fill="#5A7B85"/>
<path d="M14.8878 17.1504H12.333C12.0764 17.1504 11.8685 17.3584 11.8685 17.6149V28.6343C11.8685 28.8908 12.0764 29.0988 12.333 29.0988H14.8878C15.1444 29.0988 15.3523 28.8908 15.3523 28.6343V17.6149C15.3523 17.3584 15.1444 17.1504 14.8878 17.1504Z" fill="#5A7B85"/>
<path d="M22.1523 18.0148C24.7201 15.9116 28.062 17.4083 28.8749 20.4922C29.1502 21.5589 29.2276 24.204 29.1072 28.4277C29.09 28.875 28.8577 29.0987 28.4104 29.0987L25.7781 29.1116C25.6139 29.1116 25.4563 29.0477 25.3402 28.9339C25.224 28.8202 25.1588 28.666 25.1588 28.5051L25.1072 21.9632C25.0986 20.8363 24.5394 20.303 23.4297 20.3632L22.9523 20.389C22.4845 20.4154 22.0446 20.62 21.723 20.9608C21.4014 21.3016 21.2226 21.7527 21.2233 22.2212V28.4535C21.2233 28.8836 21.0125 29.0987 20.591 29.0987L18.062 29.1116C17.9114 29.1116 17.767 29.0504 17.6606 28.9415C17.5541 28.8326 17.4943 28.6849 17.4943 28.5309L17.5201 18.0406C17.5201 17.5847 17.7394 17.3008 18.1781 17.189C19.5373 16.8363 20.647 17.0987 21.5072 17.9761C21.5917 18.0637 21.7056 18.1166 21.8256 18.1238C21.9455 18.131 22.0624 18.092 22.1523 18.0148Z" fill="#5A7B85"/>
</svg>
