<svg width="40" height="40" viewBox="0 0 40 40" fill="none" xmlns="http://www.w3.org/2000/svg">
<circle cx="20" cy="20" r="14.5" stroke="#D9F4F5" stroke-width="11"/>
<path d="M19.9978 10.3252C16.0883 10.3252 12.9058 13.5077 12.9058 17.4172C12.9058 24.2963 19.598 29.526 19.598 29.526C19.7123 29.6172 19.8541 29.6668 20.0002 29.6668C20.1464 29.6668 20.2882 29.6172 20.4024 29.526C20.4024 29.526 27.0946 24.2963 27.0946 17.4172C27.0946 13.5077 23.9074 10.3252 19.9978 10.3252ZM19.9978 11.6151C23.2104 11.6151 25.8047 14.2046 25.8047 17.4172C25.8048 23.0449 20.7088 27.4911 20.0026 28.0933C19.2997 27.4941 14.1957 23.0471 14.1957 17.4172C14.1957 14.2046 16.7853 11.6151 19.9978 11.6151Z" fill="#14191B"/>
<path d="M19.9979 14.1948C18.225 14.1948 16.7755 15.6443 16.7755 17.4172C16.7755 19.1901 18.225 20.6443 19.9979 20.6443C21.7708 20.6443 23.225 19.1901 23.225 17.4172C23.225 15.6443 21.7708 14.1948 19.9979 14.1948ZM19.9979 15.4847C21.0738 15.4847 21.9351 16.3412 21.9351 17.4172C21.9351 18.4931 21.0738 19.3544 19.9979 19.3544C18.9219 19.3544 18.0654 18.4931 18.0654 17.4172C18.0654 16.3412 18.9219 15.4847 19.9979 15.4847Z" fill="#14191B"/>
</svg>
