<svg width="32" height="32" viewBox="0 0 32 32" fill="none" xmlns="http://www.w3.org/2000/svg">
<g opacity="0.5">
<path d="M15.9997 6.4C14.7424 6.4 13.5365 6.90571 12.6475 7.80589C11.7584 8.70606 11.2589 9.92696 11.2589 11.2C11.2589 12.473 11.7584 13.6939 12.6475 14.5941C13.5365 15.4943 14.7424 16 15.9997 16C17.257 16 18.4628 15.4943 19.3519 14.5941C20.2409 13.6939 20.7404 12.473 20.7404 11.2C20.7404 9.92696 20.2409 8.70606 19.3519 7.80589C18.4628 6.90571 17.257 6.4 15.9997 6.4ZM8.88856 11.2C8.88856 9.29044 9.63777 7.45909 10.9714 6.10883C12.305 4.75857 14.1137 4 15.9997 4C17.8857 4 19.6944 4.75857 21.028 6.10883C22.3616 7.45909 23.1108 9.29044 23.1108 11.2C23.1108 13.1096 22.3616 14.9409 21.028 16.2912C19.6944 17.6414 17.8857 18.4 15.9997 18.4C14.1137 18.4 12.305 17.6414 10.9714 16.2912C9.63777 14.9409 8.88856 13.1096 8.88856 11.2ZM11.2589 23.2C10.3159 23.2 9.41157 23.5793 8.74478 24.2544C8.07798 24.9295 7.70338 25.8452 7.70338 26.8C7.70338 27.1183 7.57851 27.4235 7.35625 27.6485C7.13398 27.8736 6.83252 28 6.51819 28C6.20386 28 5.90241 27.8736 5.68014 27.6485C5.45788 27.4235 5.33301 27.1183 5.33301 26.8C5.33301 25.2087 5.95734 23.6826 7.06867 22.5574C8.18 21.4321 9.68728 20.8 11.2589 20.8H20.7404C22.3121 20.8 23.8194 21.4321 24.9307 22.5574C26.042 23.6826 26.6663 25.2087 26.6663 26.8C26.6663 27.1183 26.5415 27.4235 26.3192 27.6485C26.0969 27.8736 25.7955 28 25.4812 28C25.1668 28 24.8654 27.8736 24.6431 27.6485C24.4208 27.4235 24.296 27.1183 24.296 26.8C24.296 25.8452 23.9214 24.9295 23.2546 24.2544C22.5878 23.5793 21.6834 23.2 20.7404 23.2H11.2589Z" fill="#14191B"/>
</g>
</svg>
