<svg width="32" height="32" viewBox="0 0 32 32" fill="none" xmlns="http://www.w3.org/2000/svg">
<g opacity="0.5">
<path d="M21.3333 4.3335H10.6666C9.38665 4.3335 8.33331 5.38683 8.33331 6.66683V25.3335C8.33331 26.6135 9.38665 27.6668 10.6666 27.6668H21.3333C22.6133 27.6668 23.6666 26.6135 23.6666 25.3335V6.66683C23.6666 5.38683 22.6133 4.3335 21.3333 4.3335ZM21.6666 25.3335C21.6666 25.5202 21.52 25.6668 21.3333 25.6668H10.6666C10.48 25.6668 10.3333 25.5202 10.3333 25.3335V6.66683C10.3333 6.48016 10.48 6.3335 10.6666 6.3335H21.3333C21.52 6.3335 21.6666 6.48016 21.6666 6.66683V25.3335ZM17.3333 21.3335C17.3333 22.0668 16.7333 22.6668 16 22.6668C15.2666 22.6668 14.6666 22.0668 14.6666 21.3335C14.6666 20.6002 15.2666 20.0002 16 20.0002C16.7333 20.0002 17.3333 20.6002 17.3333 21.3335Z" fill="#14191B"/>
</g>
</svg>
