<svg width="90" height="91" viewBox="0 0 90 91" fill="none" xmlns="http://www.w3.org/2000/svg">
<circle cx="44.9904" cy="45.9434" r="45" fill="#D9F4F5"/>
<g clip-path="url(#clip0_136_62)">
<path d="M69.9977 65.9197C74.3786 60.4448 76.9998 53.5008 76.9998 45.9436C76.9998 28.2705 62.673 13.9437 44.9999 13.9437C27.3268 13.9437 13 28.2705 13 45.9436C13 53.5008 15.6214 60.4448 20.0022 65.9197H69.9977Z" fill="white"/>
<path d="M21.6875 25.756H68.7499V15.1935H26.25L21.6875 17.6935V25.756Z" fill="white"/>
<path d="M31.25 23.9435C29.1789 23.9435 27.5 22.2646 27.5 20.1935C27.5 18.1224 29.1789 16.4435 31.25 16.4435V15.1935H26.25L21.6875 17.6935V25.756H31.25V23.9435Z" fill="#C3DDF4"/>
<path d="M69.9998 25.1935V65.9196C64.1361 73.2484 55.1161 77.9434 44.9999 77.9434C39.5799 77.9434 34.4737 76.5959 30 74.2159C26.1237 72.1559 22.7212 69.3209 20 65.9196V20.3185C20 16.7973 22.8537 13.9435 26.375 13.9435H68.7499C69.4398 13.9435 69.9998 14.5035 69.9998 15.1935C69.9998 15.8835 69.4398 16.4435 68.7499 16.4435H26.25C25.215 16.4435 24.2775 16.8635 23.5987 17.5423C22.92 18.221 22.5 19.1585 22.5 20.1935C22.5 21.0448 22.7837 21.8298 23.2625 22.4598C23.9475 23.361 25.03 23.9435 26.25 23.9435H68.7499C69.4398 23.9435 69.9998 24.5035 69.9998 25.1935Z" fill="#285B75"/>
<mask id="mask0_136_62" style="mask-type:luminance" maskUnits="userSpaceOnUse" x="13" y="13" width="64" height="65">
<path d="M13 13.9435H76.9998V77.9434H13V13.9435Z" fill="white"/>
</mask>
<g mask="url(#mask0_136_62)">
<path d="M69.9998 15.1935C69.9998 15.8835 69.4398 16.4435 68.7499 16.4435H26.25C25.215 16.4435 24.2775 16.8635 23.5987 17.5422C22.92 18.221 22.5 19.1585 22.5 20.1935C22.5 21.0447 22.7837 21.8297 23.2625 22.4597C23.9475 23.361 25.03 23.9435 26.25 23.9435H30V74.2158C26.1237 72.1558 22.7212 69.3208 20 65.9196V20.3185C20 16.7972 22.8537 13.9435 26.375 13.9435H68.7499C69.4398 13.9435 69.9998 14.5035 69.9998 15.1935Z" fill="#247789"/>
<path d="M28.1249 27.6935C27.0894 27.6935 26.2499 28.533 26.2499 29.5685V71.875C27.4445 72.7403 28.6975 73.5221 29.9999 74.2146V29.5685C29.9999 28.533 29.1604 27.6935 28.1249 27.6935Z" fill="#2A869A"/>
<path d="M61.3186 36.5021L57.5254 34.6055C57.4391 34.5624 57.344 34.54 57.2476 34.54C57.1511 34.54 57.056 34.5624 56.9698 34.6055L53.1766 36.5021C52.7635 36.7086 52.2775 36.4082 52.2775 35.9465V19.2717H62.2177V35.9465C62.2177 36.4082 61.7317 36.7086 61.3186 36.5021Z" fill="#FFD00D"/>
<path d="M56.005 19.2717H52.2774V35.9465C52.2774 36.4082 52.7634 36.7086 53.1765 36.5021L56.005 35.0879V19.2717Z" fill="#FFAF10"/>
</g>
</g>
<defs>
<clipPath id="clip0_136_62">
<rect width="64" height="64" fill="white" transform="translate(13 13.9434)"/>
</clipPath>
</defs>
</svg>
