<svg width="90" height="92" viewBox="0 0 90 92" fill="none" xmlns="http://www.w3.org/2000/svg">
<circle cx="45" cy="46.2236" r="45" fill="#D9F4F5"/>
<g clip-path="url(#clip0_136_143)">
<mask id="mask0_136_143" style="mask-type:luminance" maskUnits="userSpaceOnUse" x="13" y="13" width="64" height="65">
<path d="M13 13.9738H76.9998V77.9736H13V13.9738Z" fill="white"/>
</mask>
<g mask="url(#mask0_136_143)">
<path d="M76.9998 45.9737C76.9998 63.6468 62.673 77.9736 44.9999 77.9736C27.3268 77.9736 13 63.6468 13 45.9737C13 28.3007 27.3268 13.9738 44.9999 13.9738C62.673 13.9738 76.9998 28.3007 76.9998 45.9737Z" fill="white"/>
<path d="M39.9395 77.5739C43.2923 78.1071 46.7083 78.1071 50.0612 77.5739L49.1314 64.0005H40.8691L39.9395 77.5739Z" fill="#247789"/>
<path d="M39.9395 77.5739C41.4493 77.8132 42.9742 77.9447 44.5027 77.9674L45.4593 64.0006H40.8691L39.9395 77.5739Z" fill="#285B75"/>
<path d="M49.59 60.9403H40.4097C39.5647 60.9403 38.8797 61.6253 38.8797 62.4703V65.5304C38.8797 66.3755 39.5647 67.0605 40.4097 67.0605H49.59C50.435 67.0605 51.12 66.3755 51.12 65.5304V62.4703C51.12 61.6253 50.435 60.9403 49.59 60.9403Z" fill="#FFD00D"/>
<path d="M44.9999 65.5306V62.4704C44.9999 61.6254 45.6849 60.9404 46.5299 60.9404H40.4098C39.5647 60.9404 38.8797 61.6254 38.8797 62.4704V65.5306C38.8797 66.3755 39.5647 67.0605 40.4098 67.0605H46.5299C45.6849 67.0605 44.9999 66.3755 44.9999 65.5306Z" fill="#FFAF10"/>
<path d="M67.9504 41.0498C67.9504 53.7251 57.675 64.0006 44.9996 64.0006C32.3242 64.0006 22.0488 53.7251 22.0488 41.0498C22.0488 28.3745 32.3242 18.099 44.9996 18.099C57.675 18.099 67.9504 28.3745 67.9504 41.0498Z" fill="#285B75"/>
<path d="M30.7988 41.0498C30.7988 29.8707 38.792 20.5601 49.3746 18.5173C47.9329 18.2389 46.468 18.0988 44.9996 18.099C32.3243 18.099 22.0488 28.3745 22.0488 41.0498C22.0488 53.7251 32.3243 64.0006 44.9996 64.0006C46.496 64.0006 47.9583 63.8557 49.3746 63.5824C38.792 61.5395 30.7988 52.2289 30.7988 41.0498Z" fill="#293D7C"/>
<path d="M44.9999 60.9403C34.0322 60.9403 25.1092 52.0173 25.1092 41.0496C25.1092 30.0818 34.0322 21.1589 44.9999 21.1589C55.9678 21.1589 64.8906 30.0818 64.8906 41.0496C64.8906 52.0173 55.9678 60.9403 44.9999 60.9403Z" fill="#F4FBFF"/>
<path d="M41.8834 21.4037C32.391 22.9039 25.1094 31.142 25.1094 41.0496C25.1094 50.9572 32.391 59.1952 41.8834 60.6954C35.2402 56.6748 30.7992 49.3816 30.7992 41.0496C30.7992 32.7175 35.2402 25.4243 41.8834 21.4037Z" fill="#D3F0FF"/>
<path d="M64.8906 41.0496C64.8906 37.6617 64.0384 34.4695 62.5384 31.6746H27.4615C25.9615 34.4695 25.1092 37.6617 25.1092 41.0496C25.1092 44.4375 25.9615 47.6297 27.4615 50.4246H62.5384C64.0384 47.6297 64.8906 44.4375 64.8906 41.0496Z" fill="#BEE2E5"/>
<path d="M30.7991 41.0496C30.7991 37.7097 31.5131 34.537 32.7958 31.6746H27.4615C25.9615 34.4695 25.1092 37.6617 25.1092 41.0496C25.1092 44.4375 25.9615 47.6297 27.4615 50.4246H32.7958C31.5131 47.5622 30.7991 44.3895 30.7991 41.0496Z" fill="#A2E6E6"/>
<path d="M31.1943 45.0841L34.1798 37.2451C34.241 37.096 34.4521 37.0959 34.5133 37.2449L37.4717 45.0841" stroke="#285B75" stroke-width="1.5" stroke-miterlimit="10" stroke-linecap="round" stroke-linejoin="round"/>
<path d="M32.1258 43.1316H36.5561" stroke="#285B75" stroke-width="1.5" stroke-miterlimit="10" stroke-linecap="round" stroke-linejoin="round"/>
<path d="M46.6108 38.8451C46.6108 39.8555 45.7917 40.6746 44.7813 40.6746C44.2802 40.6746 42.4717 40.6827 42.4717 40.6827V37.0156H44.7813C45.7917 37.0156 46.6108 37.8347 46.6108 38.8451Z" stroke="#285B75" stroke-width="1.5" stroke-miterlimit="10" stroke-linecap="round" stroke-linejoin="round"/>
<path d="M47.3247 42.8168C47.3247 43.9988 46.3665 44.9569 45.1845 44.9569C44.5983 44.9569 42.4717 44.9664 42.4717 44.9664V40.6767H45.1845C46.3665 40.6767 47.3247 41.6348 47.3247 42.8168Z" stroke="#285B75" stroke-width="1.5" stroke-miterlimit="10" stroke-linecap="round" stroke-linejoin="round"/>
<path d="M58.5234 37.6943C57.8671 37.2506 57.0928 37.0141 56.3006 37.0153C54.1051 37.0153 52.3251 38.7952 52.3251 40.9908C52.3251 43.1864 54.1051 44.9663 56.3006 44.9663C57.1924 44.9663 57.9259 44.6727 58.4825 44.1769C58.5979 44.0739 58.7057 43.9627 58.8051 43.8441" stroke="#285B75" stroke-width="1.5" stroke-miterlimit="10" stroke-linecap="round" stroke-linejoin="round"/>
</g>
</g>
<defs>
<clipPath id="clip0_136_143">
<rect width="64" height="64" fill="white" transform="translate(13 13.9736)"/>
</clipPath>
</defs>
</svg>
