<svg width="90" height="92" viewBox="0 0 90 92" fill="none" xmlns="http://www.w3.org/2000/svg">
<circle cx="45" cy="46.2236" r="45" fill="#D9F4F5"/>
<mask id="mask0_136_305" style="mask-type:luminance" maskUnits="userSpaceOnUse" x="12" y="13" width="65" height="65">
<path d="M12.9904 13.9434H76.9903V77.9432H12.9904V13.9434Z" fill="white"/>
</mask>
<g mask="url(#mask0_136_305)">
<path d="M12.9904 45.9434C12.9904 28.2703 27.3173 13.9435 44.9904 13.9435C62.6634 13.9435 76.9903 28.2703 76.9903 45.9434H12.9904Z" fill="white"/>
<path d="M76.9903 21.5684V45.9433C76.9903 50.3471 76.1003 54.5433 74.4903 58.362C69.6415 69.867 58.2591 77.9432 44.9904 77.9432C35.8329 77.9432 27.5742 74.0957 21.7404 67.9308C19.1217 65.162 16.9929 61.927 15.4904 58.362C13.8804 54.5433 12.9904 50.3471 12.9904 45.9433V21.5684C12.9904 20.1872 14.1092 19.0684 15.4904 19.0684H74.4903C75.8715 19.0684 76.9903 20.1872 76.9903 21.5684Z" fill="#247789"/>
<path d="M24.2404 19.0684C22.8592 19.0684 21.7404 20.1872 21.7404 21.5684V67.9308C19.1217 65.162 16.9929 61.9271 15.4904 58.3621C13.8804 54.5433 12.9904 50.3471 12.9904 45.9434V21.5684C12.9904 20.1872 14.1092 19.0684 15.4904 19.0684H24.2404Z" fill="#285B75"/>
<path d="M74.4903 31.9634V58.362C69.6415 69.867 58.2591 77.9432 44.9904 77.9432C35.8329 77.9432 27.5742 74.0957 21.7404 67.9308C19.1217 65.162 16.9929 61.927 15.4904 58.362V31.9634C15.4902 31.8194 15.5399 31.6798 15.6311 31.5683C15.7223 31.4569 15.8493 31.3805 15.9904 31.3521C16.2117 31.3071 16.4217 31.2334 16.6179 31.1334C17.4329 30.7209 17.9904 29.8759 17.9904 28.9021C17.991 28.4073 17.8444 27.9234 17.5692 27.5121C17.2594 27.0504 17.0941 26.5069 17.0942 25.9509C17.0942 25.2334 17.3692 24.5221 17.9067 23.9846C18.8504 23.0422 20.3267 22.9059 21.4354 23.6471C21.5317 23.7122 21.6342 23.7709 21.7404 23.8221C21.7692 23.8359 21.7979 23.8496 21.8279 23.8634C22.1329 23.9946 22.4692 24.0684 22.8242 24.0684C24.0329 24.0684 25.0417 23.2097 25.2742 22.0684C25.3329 21.7772 25.5879 21.5684 25.8854 21.5684H64.0953C64.2393 21.5682 64.3789 21.6179 64.4904 21.7091C64.6018 21.8002 64.6782 21.9272 64.7065 22.0684C64.939 23.2097 65.9478 24.0684 67.1565 24.0684C67.5115 24.0684 67.8478 23.9946 68.1528 23.8634C68.2903 23.8021 68.4228 23.7309 68.5453 23.6471C69.0215 23.3284 69.5665 23.1722 70.1078 23.1722C70.8253 23.1722 71.5365 23.4472 72.074 23.9846C73.0165 24.9284 73.1528 26.4046 72.4115 27.5121C72.1364 27.9234 71.9897 28.4073 71.9903 28.9021C71.9903 29.8759 72.5478 30.7209 73.3628 31.1334C73.559 31.2334 73.769 31.3071 73.9903 31.3521C74.2815 31.4109 74.4903 31.6659 74.4903 31.9634Z" fill="white"/>
<path d="M21.7404 23.8222V67.9308C19.1217 65.162 16.9929 61.9271 15.4904 58.3621V31.9634C15.4902 31.8194 15.5399 31.6798 15.6311 31.5683C15.7223 31.4569 15.8493 31.3805 15.9904 31.3521C16.2117 31.3071 16.4217 31.2334 16.6179 31.1334C17.4329 30.7209 17.9904 29.8759 17.9904 28.9022C17.991 28.4073 17.8444 27.9235 17.5692 27.5122C17.2594 27.0504 17.0941 26.5069 17.0942 25.9509C17.0942 25.2334 17.3692 24.5222 17.9067 23.9847C18.8504 23.0422 20.3267 22.9059 21.4354 23.6472C21.5317 23.7122 21.6342 23.7709 21.7404 23.8222Z" fill="#E4F2FF"/>
<path d="M63.1771 77.8769L59.3839 75.9802C59.2977 75.9371 59.2025 75.9147 59.1061 75.9147C59.0096 75.9147 58.9145 75.9371 58.8282 75.9802L55.0351 77.8769C54.622 78.0834 54.136 77.783 54.136 77.3212V63.6564H64.0762V77.3212C64.0762 77.783 63.5902 78.0834 63.1771 77.8769Z" fill="#00B5BA"/>
<path d="M57.8636 63.6564H54.136V77.3211C54.136 77.783 54.622 78.0834 55.0351 77.8769L57.8636 76.4626V63.6564Z" fill="#04A1A5"/>
<path d="M68.4807 59.6933C68.4807 64.8709 64.2833 69.0682 59.1057 69.0682C53.9281 69.0682 49.7307 64.8709 49.7307 59.6933C49.7307 54.5157 53.9281 50.3183 59.1057 50.3183C64.2833 50.3183 68.4807 54.5157 68.4807 59.6933Z" fill="#FFD00D"/>
<path d="M54.7307 59.6933C54.7307 55.3818 57.6422 51.7524 61.6057 50.658C60.7915 50.4327 59.9505 50.3184 59.1057 50.3183C53.9281 50.3183 49.7307 54.5157 49.7307 59.6933C49.7307 64.8709 53.9281 69.0682 59.1057 69.0682C59.9718 69.0682 60.8094 68.9484 61.6057 68.7285C57.6422 67.6341 54.7307 64.0048 54.7307 59.6933Z" fill="#FFAF10"/>
<path d="M59.1057 66.5682C55.3148 66.5682 52.2307 63.4841 52.2307 59.6933C52.2307 55.9024 55.3148 52.8183 59.1057 52.8183C62.8965 52.8183 65.9807 55.9024 65.9807 59.6933C65.9807 63.4841 62.8965 66.5682 59.1057 66.5682Z" fill="#FF9518"/>
<path d="M57.5478 52.9986C54.5052 53.7065 52.2307 56.4385 52.2307 59.6933C52.2307 62.9484 54.5052 65.6803 57.5478 66.3882C55.8103 64.6872 54.7307 62.3173 54.7307 59.6933C54.7307 57.0695 55.8103 54.6996 57.5478 52.9986Z" fill="#EF8318"/>
<path d="M61.8982 55.6796C61.8982 55.5408 61.8431 55.4076 61.7449 55.3094C61.6467 55.2113 61.5136 55.1561 61.3747 55.1561H56.8373C56.6984 55.1561 56.5653 55.2113 56.4671 55.3094C56.3689 55.4076 56.3138 55.5408 56.3138 55.6796C56.3138 55.8184 56.3689 55.9516 56.4671 56.0498C56.5653 56.148 56.6984 56.2031 56.8373 56.2031C56.9761 56.2031 57.1093 56.2583 57.2075 56.3565C57.3057 56.4547 57.3609 56.5879 57.3609 56.7267V62.6602C57.3609 62.729 57.3473 62.7971 57.321 62.8606C57.2947 62.9241 57.2561 62.9818 57.2075 63.0304C57.1589 63.079 57.1012 63.1176 57.0376 63.1439C56.9741 63.1702 56.906 63.1837 56.8373 63.1837C56.7685 63.1837 56.7004 63.1973 56.6369 63.2236C56.5734 63.2499 56.5157 63.2884 56.467 63.3371C56.4184 63.3857 56.3799 63.4434 56.3535 63.5069C56.3272 63.5704 56.3137 63.6385 56.3137 63.7073C56.3137 63.776 56.3272 63.8441 56.3535 63.9076C56.3799 63.9712 56.4184 64.0289 56.467 64.0775C56.5157 64.1261 56.5734 64.1647 56.6369 64.191C56.7004 64.2173 56.7685 64.2308 56.8373 64.2308H61.3747C61.5122 64.2287 61.6433 64.1726 61.7398 64.0747C61.8362 63.9767 61.8903 63.8447 61.8903 63.7073C61.8903 63.5698 61.8362 63.4378 61.7398 63.3399C61.6433 63.2419 61.5122 63.1858 61.3747 63.1837C61.306 63.1837 61.2379 63.1702 61.1744 63.1439C61.1108 63.1176 61.0531 63.079 61.0045 63.0304C60.9559 62.9818 60.9173 62.9241 60.891 62.8606C60.8647 62.7971 60.8511 62.729 60.8511 62.6602V56.7267C60.8511 56.5879 60.9063 56.4547 61.0045 56.3565C61.1027 56.2583 61.2359 56.2031 61.3747 56.2031C61.5136 56.2031 61.6467 56.148 61.7449 56.0498C61.8431 55.9516 61.8982 55.8184 61.8982 55.6796Z" fill="#FFD00D"/>
<path d="M58.1558 63.7072C58.1558 63.5684 58.211 63.4352 58.3091 63.337C58.4073 63.2389 58.5405 63.1837 58.6793 63.1837C58.8182 63.1837 58.9514 63.1285 59.0496 63.0304C59.1478 62.9322 59.2029 62.799 59.2029 62.6601V56.7266C59.2029 56.6579 59.1894 56.5898 59.1631 56.5262C59.1368 56.4627 59.0982 56.405 59.0496 56.3564C59.0009 56.3078 58.9432 56.2692 58.8797 56.2429C58.8162 56.2166 58.7481 56.2031 58.6793 56.2031C58.5419 56.201 58.4107 56.1449 58.3143 56.0469C58.2178 55.949 58.1638 55.817 58.1638 55.6796C58.1638 55.5421 58.2178 55.4101 58.3143 55.3122C58.4107 55.2142 58.5419 55.1581 58.6793 55.156H56.8371C56.6982 55.156 56.565 55.2111 56.4669 55.3093C56.3687 55.4075 56.3135 55.5407 56.3135 55.6796C56.3135 55.8184 56.3687 55.9516 56.4669 56.0498C56.565 56.148 56.6982 56.2031 56.8371 56.2031C56.9759 56.2031 57.1091 56.2583 57.2072 56.3564C57.3054 56.4546 57.3606 56.5878 57.3606 56.7266V62.6601C57.3606 62.7989 57.3054 62.9321 57.2072 63.0303C57.1091 63.1285 56.9759 63.1837 56.8371 63.1837C56.6982 63.1837 56.5651 63.2389 56.4669 63.337C56.3687 63.4352 56.3136 63.5684 56.3136 63.7072C56.3136 63.8461 56.3687 63.9792 56.4669 64.0774C56.5651 64.1756 56.6982 64.2307 56.8371 64.2307H58.6793C58.5405 64.2307 58.4073 64.1756 58.3091 64.0774C58.211 63.9792 58.1558 63.8461 58.1558 63.7072Z" fill="#FFAF10"/>
<path opacity="0.6" d="M26.2404 31.5684H63.7403" stroke="#93B9DB" stroke-width="1.5" stroke-miterlimit="10" stroke-linecap="round" stroke-linejoin="round"/>
<path opacity="0.6" d="M43.1154 37.8184H63.7403" stroke="#93B9DB" stroke-width="1.5" stroke-miterlimit="10" stroke-linecap="round" stroke-linejoin="round"/>
<path opacity="0.6" d="M26.2404 37.8184H39.3654" stroke="#93B9DB" stroke-width="1.5" stroke-miterlimit="10" stroke-linecap="round" stroke-linejoin="round"/>
<path opacity="0.6" d="M26.2404 44.0684H63.7403" stroke="#93B9DB" stroke-width="1.5" stroke-miterlimit="10" stroke-linecap="round" stroke-linejoin="round"/>
<path opacity="0.6" d="M26.2404 50.3184H44.7307" stroke="#93B9DB" stroke-width="1.5" stroke-miterlimit="10" stroke-linecap="round" stroke-linejoin="round"/>
<path opacity="0.6" d="M26.2404 56.5684H44.7307" stroke="#93B9DB" stroke-width="1.5" stroke-miterlimit="10" stroke-linecap="round" stroke-linejoin="round"/>
<path opacity="0.6" d="M26.2404 62.8182H34.6154" stroke="#93B9DB" stroke-width="1.5" stroke-miterlimit="10" stroke-linecap="round" stroke-linejoin="round"/>
</g>
</svg>
