<svg width="90" height="92" viewBox="0 0 90 92" fill="none" xmlns="http://www.w3.org/2000/svg">
<circle cx="45" cy="46.2236" r="45" fill="#D9F4F5"/>
<g clip-path="url(#clip0_136_353)">
<mask id="mask0_136_353" style="mask-type:luminance" maskUnits="userSpaceOnUse" x="12" y="13" width="65" height="65">
<path d="M12.9904 13.9435H76.9902V77.9434H12.9904V13.9435Z" fill="white"/>
</mask>
<g mask="url(#mask0_136_353)">
<path d="M76.9902 45.9435C76.9902 63.6165 62.6633 77.9434 44.9903 77.9434C27.3172 77.9434 12.9904 63.6165 12.9904 45.9435C12.9904 28.2704 27.3172 13.9435 44.9903 13.9435C62.6633 13.9435 76.9902 28.2704 76.9902 45.9435Z" fill="white"/>
<path d="M20.9991 36.1087V55.0907C20.9991 57.0395 21.9048 58.8801 23.4567 60.0588C27.2063 62.907 34.9873 67.6848 44.99 67.6848C54.9926 67.6848 62.7736 62.907 66.5233 60.0588C68.0752 58.8801 68.9808 57.0395 68.9808 55.0907V36.1087H20.9991Z" fill="#247789"/>
<path d="M44.99 36.1087H20.9991V55.0907C20.9991 57.0395 21.9048 58.8801 23.4567 60.0587C27.2064 62.907 34.9873 67.6848 44.99 67.6848V64.9182C44.99 61.4745 46.9681 58.3592 50.0518 56.8262L50.0992 56.8025L68.9809 47.3048V36.1087H44.99Z" fill="#285B75"/>
<path d="M75.5872 38.3849L47.8526 52.3359C46.9646 52.7826 45.9843 53.0153 44.9902 53.0153C43.9961 53.0153 43.0158 52.7826 42.1278 52.3359L14.3934 38.3849C12.5227 37.4439 12.5227 34.7734 14.3934 33.8325L42.1278 19.8816C43.0158 19.4348 43.9961 19.2022 44.9902 19.2022C45.9843 19.2022 46.9646 19.4348 47.8526 19.8816L75.5872 33.8325C77.4578 34.7734 77.4578 37.4439 75.5872 38.3849Z" fill="#2A869A"/>
<path d="M44.9903 36.0905L61.8808 44.5869C62.0878 44.691 62.2617 44.8505 62.3833 45.0476C62.5048 45.2448 62.5692 45.4719 62.5692 45.7035V52.4329" stroke="black" stroke-miterlimit="10" stroke-linecap="round" stroke-linejoin="round"/>
<path d="M62.5693 50.5291C61.1886 50.5291 60.0693 51.6483 60.0693 53.0291V57.0031C60.0693 57.6934 60.629 58.2531 61.3193 58.2531H63.8193C64.5097 58.2531 65.0693 57.6934 65.0693 57.0031V53.0291C65.0693 51.6483 63.9501 50.5291 62.5693 50.5291Z" fill="#FFD00D"/>
<path d="M62.5693 57.0031V53.0291C62.5693 52.1043 63.0728 51.2987 63.8193 50.8662C63.4398 50.6454 63.0085 50.5291 62.5693 50.5291C61.1886 50.5291 60.0693 51.6483 60.0693 53.0291V57.0031C60.0693 57.6934 60.629 58.2531 61.3193 58.2531H63.8193C63.129 58.2531 62.5693 57.6934 62.5693 57.0031Z" fill="#FFAF10"/>
<path d="M42.1278 19.8815L14.3932 33.8324C12.5226 34.7734 12.5226 37.4439 14.3932 38.3848L42.1278 52.3358C43.0159 52.7826 43.9962 53.0153 44.9904 53.0151C33.9357 41.9605 33.3332 30.8591 44.9901 19.2021C43.9961 19.202 43.0158 19.4347 42.1278 19.8815Z" fill="#247789"/>
</g>
</g>
<defs>
<clipPath id="clip0_136_353">
<rect width="64" height="64" fill="white" transform="translate(12.9904 13.9434)"/>
</clipPath>
</defs>
</svg>
