<svg width="40" height="41" viewBox="0 0 40 41" fill="none" xmlns="http://www.w3.org/2000/svg">
<g clip-path="url(#clip0_3_2570)">
<g clip-path="url(#clip1_3_2570)">
<path opacity="0.14" d="M20.255 0.935547C9.56027 0.935547 0.857849 9.63555 0.857849 20.3315C0.857849 31.0275 9.56027 39.7275 20.255 39.7275C30.9498 39.7275 39.6522 31.0275 39.6522 20.3315C39.6522 9.63555 30.9498 0.935547 20.255 0.935547ZM20.255 38.4355C10.2728 38.4355 2.1522 30.3138 2.1522 20.3315C2.1522 10.3493 10.2728 2.22748 20.255 2.22748C30.2373 2.22748 38.3578 10.3493 38.3578 20.3315C38.3578 30.3138 30.2373 38.4355 20.255 38.4355Z" fill="#5A7B85"/>
<path d="M30.8916 14.338C31.0258 14.0897 31.1363 13.8293 31.2218 13.5602C31.2614 13.4354 31.2622 13.3016 31.2241 13.1763C31.186 13.0511 31.1109 12.9403 31.0085 12.8587C30.9062 12.777 30.7815 12.7283 30.6509 12.719C30.5203 12.7097 30.39 12.7403 30.2771 12.8066C29.6572 13.1748 28.9862 13.4492 28.286 13.6207C27.4359 12.8535 26.3319 12.4282 25.1868 12.4268C24.5646 12.4272 23.949 12.5533 23.3768 12.7975C22.8046 13.0416 22.2876 13.3988 21.8568 13.8476C21.4259 14.2964 21.0902 14.8275 20.8696 15.4092C20.649 15.9909 20.5481 16.6112 20.5731 17.2328C17.8525 16.8903 15.3682 15.5137 13.6356 13.3885C13.5692 13.3079 13.4843 13.2446 13.3882 13.2039C13.2922 13.1632 13.1877 13.1463 13.0836 13.1546C12.9796 13.1629 12.8791 13.1962 12.7907 13.2517C12.7023 13.3071 12.6286 13.3831 12.5759 13.4731C12.1791 14.1541 11.9635 14.9253 11.9495 15.7133C11.9355 16.5013 12.1237 17.2797 12.496 17.9743C12.4047 17.9897 12.317 18.0217 12.2372 18.0687C12.1394 18.1311 12.0588 18.2171 12.003 18.3187C11.9472 18.4204 11.9179 18.5345 11.9178 18.6505C11.9178 20.0235 12.5287 21.284 13.5134 22.1405L13.471 22.1828C13.3967 22.2669 13.3456 22.3689 13.3226 22.4788C13.2997 22.5887 13.3059 22.7026 13.3404 22.8094C13.5457 23.45 13.8886 24.0379 14.3449 24.5321C14.8013 25.0263 15.3601 25.4147 15.9823 25.6703C14.7044 26.2937 13.2743 26.5368 11.8622 26.3707C11.717 26.3559 11.5711 26.3897 11.4471 26.4667C11.3232 26.5438 11.2284 26.6598 11.1775 26.7965C11.1286 26.9343 11.1277 27.0845 11.1749 27.2228C11.2221 27.3612 11.3147 27.4795 11.4376 27.5586C13.3573 28.7907 15.5907 29.4453 17.8718 29.4445C25.3477 29.4445 29.8162 23.3719 29.8162 17.5014L29.815 17.303C30.5395 16.7373 31.1688 16.0594 31.6791 15.2949C31.7564 15.1793 31.7944 15.0419 31.7875 14.9031C31.7806 14.7642 31.7291 14.6313 31.6408 14.5239C31.5524 14.4166 31.4319 14.3406 31.2969 14.3071C31.162 14.2736 31.0199 14.2845 30.8916 14.338ZM28.7807 16.461C28.6929 16.5242 28.6224 16.6083 28.5755 16.7057C28.5285 16.8031 28.5068 16.9107 28.5122 17.0187C28.5194 17.1784 28.5231 17.3405 28.5231 17.5001C28.5231 22.7356 24.5396 28.1514 17.8731 28.1514C16.6841 28.1519 15.5035 27.9523 14.3807 27.561C15.7254 27.3033 16.9886 26.7267 18.0642 25.8796C18.1689 25.797 18.2455 25.6841 18.2837 25.5564C18.3218 25.4286 18.3195 25.2922 18.2771 25.1658C18.2348 25.0393 18.1544 24.9291 18.047 24.8501C17.9396 24.7711 17.8104 24.7271 17.6771 24.7243C17.1555 24.7144 16.6436 24.582 16.1826 24.3378C15.7215 24.0936 15.3244 23.7446 15.0231 23.3187C15.3291 23.2981 15.6291 23.2473 15.9206 23.1687C16.0617 23.1309 16.1859 23.0465 16.2728 22.9291C16.3597 22.8117 16.4043 22.6683 16.3992 22.5223C16.3942 22.3764 16.3398 22.2364 16.245 22.1253C16.1501 22.0142 16.0205 21.9385 15.8771 21.9106C15.288 21.7908 14.7426 21.5131 14.2992 21.1072C13.8558 20.7012 13.531 20.1824 13.3597 19.6062C13.6815 19.6872 14.0118 19.7344 14.342 19.7453C14.6263 19.7441 14.89 19.5699 14.9783 19.2965C15.0666 19.0231 14.9626 18.7219 14.7218 18.5622C14.1527 18.183 13.7144 17.6373 13.4669 16.9997C13.2195 16.3621 13.1749 15.6637 13.3392 14.9997C15.4404 17.1558 18.2778 18.4396 21.2843 18.5949C21.4972 18.5961 21.6835 18.5199 21.813 18.3639C21.9424 18.2078 21.992 18.001 21.946 17.8026C21.7806 17.0901 21.8546 16.3429 22.1566 15.6767C22.4586 15.0105 22.9717 14.4624 23.6166 14.1172C24.2615 13.772 25.0022 13.649 25.724 13.7672C26.4459 13.8855 27.1086 14.2383 27.6097 14.7711C27.6849 14.8512 27.7791 14.9109 27.8837 14.9446C27.9882 14.9782 28.0996 14.9847 28.2073 14.9635C28.4069 14.9235 28.6041 14.8776 28.7989 14.8243C28.7111 14.8901 28.6198 14.951 28.5255 15.007C28.4 15.0838 28.3045 15.2011 28.2547 15.3395C28.2048 15.4779 28.2036 15.6292 28.2512 15.7684C28.2988 15.9075 28.3924 16.0263 28.5166 16.1052C28.6408 16.1841 28.7881 16.2183 28.9343 16.2022L29.1545 16.1743C29.0333 16.2742 28.9086 16.3698 28.7807 16.461Z" fill="#5A7B85"/>
<path d="M17.6749 25.4919C18.191 26.5242 15.0949 27.2123 13.8045 27.4274C18.9654 30.008 24.7719 26.3521 26.7078 24.2016V23.5564C28.7723 22.5242 28.8583 18.8252 28.6432 17.1048L29.9336 16.4596L29.2884 15.1693L28.6432 14.5242L24.7723 13.2338L23.482 13.879L22.1916 15.1693L21.5465 16.4596V18.3951C18.4497 18.9113 14.6644 16.0295 13.1588 14.5242C12.1265 15.5564 13.1588 17.5349 13.8039 18.3951L13.1588 19.0403V20.3306C14.019 20.9758 14.9658 22.3951 14.4497 22.9113C13.9336 23.4274 16.5996 24.8467 17.6749 25.4919Z" fill="#5A7B85"/>
</g>
</g>
<defs>
<clipPath id="clip0_3_2570">
<rect width="40" height="40" fill="white" transform="translate(0 0.5)"/>
</clipPath>
<clipPath id="clip1_3_2570">
<rect width="38.7097" height="38.7097" fill="white" transform="translate(0.900696 0.976562)"/>
</clipPath>
</defs>
</svg>
