<svg width="37" height="36" viewBox="0 0 37 36" fill="none" xmlns="http://www.w3.org/2000/svg">
<circle cx="18.9904" cy="18" r="18" fill="#BEE2E5"/>
<path d="M18.9904 33C27.2746 33 33.9904 26.2843 33.9904 18C33.9904 9.71573 27.2746 3 18.9904 3C10.7061 3 3.99036 9.71573 3.99036 18C3.99036 26.2843 10.7061 33 18.9904 33Z" fill="#F0F0F0"/>
<path d="M7.09112 8.8677C5.91286 10.4007 5.0244 12.1676 4.50708 14.0871H12.3105L7.09112 8.8677Z" fill="#0052B4"/>
<path d="M33.4736 14.0871C32.9563 12.1676 32.0678 10.4007 30.8896 8.86776L25.6703 14.0871H33.4736Z" fill="#0052B4"/>
<path d="M4.50708 21.9131C5.02446 23.8325 5.91292 25.5994 7.09112 27.1324L12.3103 21.9131H4.50708Z" fill="#0052B4"/>
<path d="M28.1226 6.10084C26.5897 4.92258 24.8228 4.03413 22.9034 3.51674V11.3201L28.1226 6.10084Z" fill="#0052B4"/>
<path d="M9.85767 29.899C11.3907 31.0773 13.1575 31.9657 15.077 32.4831V24.6798L9.85767 29.899Z" fill="#0052B4"/>
<path d="M15.0769 3.51674C13.1575 4.03413 11.3906 4.92258 9.85767 6.10079L15.0769 11.32V3.51674Z" fill="#0052B4"/>
<path d="M22.9034 32.4833C24.8228 31.9659 26.5897 31.0774 28.1227 29.8992L22.9034 24.68V32.4833Z" fill="#0052B4"/>
<path d="M25.6703 21.9131L30.8896 27.1324C32.0678 25.5995 32.9563 23.8325 33.4736 21.9131H25.6703Z" fill="#0052B4"/>
<path d="M33.8634 16.0435H20.947H20.9469V3.12698C20.3064 3.0436 19.6535 3 18.9904 3C18.3271 3 17.6743 3.0436 17.0339 3.12698V16.0434V16.0434H4.11733C4.03395 16.6839 3.99036 17.3369 3.99036 18C3.99036 18.6632 4.03395 19.3161 4.11733 19.9565H17.0337H17.0338V32.873C17.6743 32.9564 18.3271 33 18.9904 33C19.6535 33 20.3064 32.9565 20.9469 32.873V19.9566V19.9566H33.8634C33.9468 19.3161 33.9904 18.6632 33.9904 18C33.9904 17.3369 33.9468 16.6839 33.8634 16.0435Z" fill="#D80027"/>
<path d="M22.9034 21.9131L29.5969 28.6066C29.9048 28.2989 30.1985 27.9772 30.4786 27.6437L24.7481 21.9131H22.9034V21.9131Z" fill="#D80027"/>
<path d="M15.0773 21.9131H15.0772L8.38373 28.6066C8.69146 28.9144 9.0132 29.2081 9.34672 29.4883L15.0773 23.7576V21.9131Z" fill="#D80027"/>
<path d="M15.0773 14.0871V14.0869L8.38376 7.39336C8.07591 7.7011 7.78224 8.02284 7.50204 8.35635L13.2327 14.087L15.0773 14.0871Z" fill="#D80027"/>
<path d="M22.9034 14.0871L29.597 7.39342C29.2893 7.08557 28.9675 6.7919 28.634 6.51176L22.9034 12.2424V14.0871Z" fill="#D80027"/>
</svg>
