<svg width="77" height="77" viewBox="0 0 77 77" fill="none" xmlns="http://www.w3.org/2000/svg">
<path d="M11.5096 54.5601C11.1629 53.9934 10.4163 53.8367 9.2696 54.0901C8.9096 54.1701 8.8596 54.3401 9.1196 54.6001C13.0796 58.5901 15.1896 63.2301 21.5396 63.6501C21.9196 63.6701 22.1929 63.8534 22.3596 64.2001C22.5196 64.5267 22.7796 64.6867 23.1396 64.6801L26.2096 64.6501" stroke="#92BBC4" stroke-width="2"/>
<path d="M26.2095 64.6499C26.7829 65.2632 26.9462 65.6366 26.6995 65.7699C25.9129 66.1899 25.9595 66.4699 26.8395 66.6099C27.9329 66.7832 29.0829 67.0332 30.2895 67.3599" stroke="#F6FEFE" stroke-width="2"/>
<path d="M30.2901 67.3599C30.4834 67.6199 30.6034 67.8833 30.6501 68.1499C30.6591 68.2131 30.6542 68.2774 30.6358 68.3384C30.6175 68.3993 30.5861 68.4552 30.544 68.5021C30.5018 68.549 30.45 68.5857 30.3923 68.6096C30.3345 68.6334 30.2723 68.6438 30.2101 68.6399C27.1034 68.4799 24.3801 67.3433 22.0401 65.2299C21.8268 65.0433 21.5768 64.9433 21.2901 64.9299C20.7634 64.9033 20.2701 65.0466 19.8101 65.3599C19.2634 65.7266 19.3201 65.9399 19.9801 65.9999C21.3134 66.1066 22.6501 66.6599 23.9901 67.6599C25.7601 68.9799 27.9701 69.3399 30.1101 69.8099C30.4901 69.8899 30.6668 70.1266 30.6401 70.5199L30.6101 70.9699C30.5834 71.3499 30.7568 71.5799 31.1301 71.6599C38.4401 73.2999 40.3601 64.6099 33.7601 63.3899C32.0201 63.0699 30.2934 62.5599 28.5801 61.8599C28.1534 61.6866 27.9501 61.8299 27.9701 62.2899L27.9901 62.7499C28.0501 63.9766 27.7701 64.0566 27.1501 62.9899C26.5401 61.9299 26.0701 60.7399 25.0901 59.9499C23.2234 58.4633 21.3901 56.9066 19.5901 55.2799C19.2301 54.9533 19.0268 55.0299 18.9801 55.5099C18.9734 55.6099 18.9034 55.6633 18.7701 55.6699C18.3968 55.6699 18.1934 55.4866 18.1601 55.1199C18.0301 53.6599 17.5901 52.2399 16.8201 50.9899C15.5701 48.9799 13.4001 46.0799 13.5401 43.6299C13.5534 43.3366 13.4201 43.2299 13.1401 43.3099L12.7601 43.4199C12.1534 43.5933 11.9768 43.3933 12.2301 42.8199C13.7201 39.4099 13.3301 36.5999 13.1101 33.0399C13.0834 32.5733 13.1734 32.1299 13.3801 31.7099C13.5268 31.4233 13.6401 31.1299 13.7201 30.8299C13.8401 30.3499 13.6701 30.2033 13.2101 30.3899C13.1101 30.4299 13.0101 30.4299 12.9101 30.3899C12.5568 30.2633 12.5301 30.0866 12.8301 29.8599C14.8368 28.3466 16.3334 26.3233 17.3201 23.7899C17.8468 22.4433 18.8001 21.3733 20.1801 20.5799C20.3934 20.4533 20.4834 20.2699 20.4501 20.0299C20.4368 19.9099 20.3834 19.7966 20.2901 19.6899" stroke="#92BBC4" stroke-width="2"/>
<path d="M20.2904 19.6903C20.2104 19.5236 20.317 19.3803 20.6104 19.2603" stroke="#F6FEFE" stroke-width="2"/>
<path d="M20.6104 19.2603C22.6904 18.6136 24.6237 17.547 26.4104 16.0603C26.7104 15.807 27.0537 15.6536 27.4404 15.6003C28.147 15.5003 28.577 15.1403 28.7304 14.5203C28.8304 14.107 29.0837 13.9636 29.4904 14.0903C32.7304 15.1103 34.8404 12.2603 38.2604 13.3203C38.6004 13.427 38.9337 13.4103 39.2604 13.2703C40.3104 12.8103 41.6504 12.9003 42.6804 13.3903C44.4404 14.2236 46.197 14.477 47.9503 14.1503C48.157 14.117 48.3337 14.1736 48.4804 14.3203C48.5937 14.4403 48.657 14.5836 48.6704 14.7503C48.6849 14.8954 48.7438 15.0323 48.8388 15.1416C48.9339 15.251 49.0603 15.3275 49.2003 15.3603C50.327 15.6136 51.2104 16.0503 51.8504 16.6703C53.3837 18.1303 55.347 18.9536 57.7403 19.1403" stroke="#92BBC4" stroke-width="2"/>
<path d="M57.7399 19.1401C57.4666 19.2868 57.1933 19.4368 56.9199 19.5901" stroke="#F6FEFE" stroke-width="2"/>
<path d="M56.9199 19.5901C57.4332 20.3768 58.0465 21.2034 58.7599 22.0701C59.4465 22.9034 59.9965 23.7701 60.4099 24.6701C61.4032 26.8568 62.7632 28.5801 64.4899 29.8401C64.7832 30.0534 64.7732 30.2568 64.4599 30.4501C64.3799 30.5034 64.2932 30.5068 64.1999 30.4601C63.5532 30.1268 63.3699 30.2968 63.6499 30.9701C64.3232 32.5901 64.4432 34.4001 64.0099 36.4001C63.5099 38.6701 64.1399 40.6701 65.0499 42.7201C65.2099 43.0801 65.1099 43.3368 64.7499 43.4901C64.6699 43.5234 64.5866 43.5268 64.4999 43.5001C64.0399 43.3734 63.7965 43.5501 63.7699 44.0301C63.6832 45.4901 63.2299 46.7701 62.4099 47.8701C60.4699 50.4434 59.3799 52.9101 59.1399 55.2701C59.0999 55.6434 58.9199 55.7301 58.5999 55.5301L58.3299 55.3601C58.0499 55.1868 57.7865 55.2067 57.5399 55.4201C54.9499 57.6901 51.4299 59.7701 50.3399 63.0701C50.2799 63.2568 50.1532 63.3834 49.9599 63.4501C49.5466 63.5901 49.3365 63.4401 49.3299 63.0001L49.3199 62.1701C49.3132 61.6967 49.1032 61.5701 48.6899 61.7901L47.5499 62.3901C47.1032 62.6234 46.6299 62.7701 46.1299 62.8301C43.6032 63.1501 41.8132 63.8534 40.7599 64.9401C38.9399 66.8068 38.9932 68.6834 40.9199 70.5701C42.1799 71.8034 43.9532 72.1601 46.2399 71.6401C46.6932 71.5401 46.7999 71.2901 46.5599 70.8901L46.4199 70.6501C46.1266 70.1701 46.2599 69.8934 46.8199 69.8201C50.0932 69.3934 52.9465 68.2601 55.3799 66.4201C55.7265 66.1601 56.1165 66.0267 56.5499 66.0201L57.4799 66.0001C58.0065 65.9868 58.0732 65.8034 57.6799 65.4501C57.2799 65.0967 56.8099 64.9034 56.2699 64.8701C55.9365 64.8501 55.6465 64.9501 55.3999 65.1701C52.8732 67.3701 50.1532 68.5367 47.2399 68.6701C46.6932 68.6967 46.3832 68.9734 46.3099 69.5001C46.2965 69.5801 46.2399 69.6334 46.1399 69.6601C45.7666 69.7468 45.6366 69.6101 45.7499 69.2501C46.4432 66.9901 47.7665 65.5434 49.7199 64.9101C51.3599 64.3701 52.9299 64.8401 54.6199 64.7101C54.8532 64.6967 54.9932 64.5734 55.0399 64.3401C55.0532 64.2534 55.0799 64.1734 55.1199 64.1001C55.2932 63.7867 55.5599 63.6201 55.9199 63.6001C62.0599 63.2401 64.3999 58.5101 68.2399 54.5101C68.6666 54.0634 68.5732 53.8701 67.9599 53.9301C66.8066 54.0368 65.7332 54.2901 64.7399 54.6901C64.7042 54.7054 64.6656 54.7129 64.6266 54.712C64.5876 54.7112 64.549 54.702 64.5132 54.6851C64.4775 54.6681 64.4454 54.6438 64.419 54.6137C64.3926 54.5836 64.3725 54.5483 64.3599 54.5101L64.2699 54.2501C64.2214 54.1094 64.2298 53.9554 64.2933 53.8209C64.3569 53.6863 64.4705 53.582 64.6099 53.5301C70.3899 51.4501 72.0499 45.1101 72.1999 39.4401C72.2132 38.9534 72.0966 38.9201 71.8499 39.3401C71.6299 39.7134 71.3065 39.9501 70.8799 40.0501C69.9265 40.2834 69.6499 39.9534 70.0499 39.0601C70.9199 37.1501 72.2299 34.7801 71.9299 32.7101C71.5099 29.7701 69.2999 27.8001 69.1699 24.9701C69.1432 24.4434 68.9632 24.3834 68.6299 24.7901C68.0799 25.4601 68.1599 25.8201 67.8799 26.5501C67.8472 26.6401 67.783 26.7142 67.6992 26.7586C67.6155 26.803 67.5179 26.8146 67.4248 26.7913C67.3317 26.7681 67.2494 26.7114 67.1933 26.6321C67.1371 26.5527 67.1111 26.456 67.1199 26.3601C67.7532 20.1268 65.2932 15.5601 59.7399 12.6601C59.2399 12.3934 58.9999 12.5468 59.0199 13.1201C59.0265 13.2468 58.9999 13.3701 58.9399 13.4901C58.6999 13.9768 58.4499 13.9834 58.1899 13.5101C56.6699 10.7401 54.2799 8.00008 51.1799 7.12008C50.0332 6.79342 48.9599 6.32675 47.9599 5.72009C47.6599 5.53342 47.3399 5.49009 46.9999 5.59009C44.7599 6.24342 42.4599 5.90675 40.0999 4.58008C39.6132 4.30008 39.4299 4.43675 39.5499 4.99008C39.9032 6.63675 40.9032 8.05342 42.5499 9.24008C43.3565 9.82008 43.2765 10.2268 42.3099 10.4601C41.2565 10.7134 40.2599 11.1901 39.3199 11.8901C39.0466 12.0901 38.7565 12.1201 38.4499 11.9801L34.1799 10.0401C34.1554 10.0284 34.1342 10.0106 34.1185 9.98841C34.1027 9.96624 34.0929 9.94043 34.0899 9.91342C34.0869 9.8864 34.0908 9.85906 34.1013 9.83398C34.1118 9.8089 34.1285 9.78691 34.1499 9.77009C36.0032 8.52342 37.2299 6.97342 37.8299 5.12008C38.0499 4.44008 37.8465 4.27342 37.2199 4.62008C35.4999 5.55342 33.6099 6.01675 31.5499 6.01009C31.2232 6.00342 30.9499 5.88009 30.7299 5.64009C30.4632 5.34009 30.1632 5.30009 29.8299 5.52009C28.6899 6.24009 27.4532 6.78342 26.1199 7.15008C22.9999 8.00008 20.6599 10.7701 19.1499 13.6001C18.9099 14.0601 18.6565 14.0701 18.3899 13.6301C18.2432 13.3901 18.2032 13.1334 18.2699 12.8601C18.2844 12.8088 18.2834 12.7545 18.267 12.7038C18.2507 12.6531 18.2198 12.6084 18.1781 12.5753C18.1364 12.5421 18.0858 12.5221 18.0328 12.5176C17.9797 12.5131 17.9265 12.5244 17.8799 12.5501C12.2265 15.4234 9.69988 19.8868 10.2999 25.9401C10.3265 26.2134 10.2232 26.4168 9.98988 26.5501C9.79655 26.6634 9.50988 26.7101 9.12988 26.6901" stroke="#92BBC4" stroke-width="2"/>
<path d="M56.9204 19.5901C57.5537 19.1434 57.8104 18.5867 57.6904 17.9201C57.5837 17.3267 57.7637 17.2001 58.2304 17.5401C58.3037 17.5934 58.3837 17.6301 58.4704 17.6501C59.677 17.9234 59.8404 17.6267 58.9604 16.7601C57.1404 14.9734 54.8404 14.2467 52.0604 14.5801C51.527 14.6467 51.4837 14.8334 51.9304 15.1401L57.7404 19.1401" stroke="#89BAC3" stroke-width="2"/>
<path d="M20.6096 19.2599C20.2896 19.0199 20.1362 18.8033 20.1496 18.6099C20.1629 18.4233 20.2596 18.2999 20.4396 18.2399C22.3729 17.5399 24.0929 16.5266 25.5996 15.1999C25.639 15.1658 25.6677 15.1212 25.6823 15.0712C25.697 15.0212 25.6971 14.9678 25.6825 14.917C25.668 14.8661 25.6394 14.8198 25.6001 14.7832C25.5607 14.7467 25.512 14.7213 25.4596 14.7099C22.6329 14.1699 20.1729 14.9633 18.0796 17.0899C17.9129 17.2633 17.9162 17.4299 18.0896 17.5899L18.3596 17.8299C18.4596 17.9233 18.5596 17.9233 18.6596 17.8299C19.8329 16.7566 21.1229 15.9666 22.5296 15.4599C23.1029 15.2599 23.1629 15.3633 22.7096 15.7699C22.1762 16.2499 21.5296 16.6066 20.7696 16.8399C20.4162 16.9466 20.1462 17.1566 19.9596 17.4699C19.3462 18.5033 19.4562 19.2433 20.2896 19.6899" stroke="#89BAC3" stroke-width="2"/>
<path d="M30.29 67.3599C30.49 67.0732 30.2833 66.6366 29.67 66.0499C28.8633 65.2832 27.71 64.8166 26.21 64.6499" stroke="#89BAC3" stroke-width="2"/>
<path d="M11.5098 54.5602C12.7964 58.6802 15.5264 61.2535 19.6998 62.2802C20.3931 62.4535 20.4564 62.3202 19.8898 61.8802C18.2198 60.5702 15.3898 59.4302 14.3298 57.5002C14.0298 56.9535 14.1364 56.8568 14.6498 57.2102C15.7831 57.9968 16.8531 58.8568 17.8598 59.7902C17.9149 59.841 17.9862 59.8709 18.0611 59.8746C18.1361 59.8782 18.2099 59.8554 18.2698 59.8102L18.5198 59.6202C18.5446 59.6016 18.5655 59.5781 18.581 59.5512C18.5966 59.5243 18.6065 59.4946 18.6103 59.4637C18.614 59.4329 18.6115 59.4016 18.6028 59.3718C18.5941 59.342 18.5795 59.3142 18.5598 59.2902C16.9931 57.2568 14.9364 55.9902 12.3898 55.4902C11.9498 55.4035 11.9098 55.2235 12.2698 54.9502C12.4498 54.8035 12.6498 54.7868 12.8698 54.9002C13.1898 55.0668 13.2964 54.9768 13.1898 54.6302L13.0498 54.1802" stroke="#89BAC3" stroke-width="2"/>
<path d="M24.7202 50.57C29.1935 52.3167 33.2668 51.6667 36.9402 48.62C38.8002 47.0733 39.7468 45.27 39.7802 43.21C39.8468 38.4633 39.8668 33.17 39.8402 27.33C39.8335 27.1167 39.7235 27.01 39.5102 27.01L35.3102 27C35.1168 27 35.0168 27.0967 35.0102 27.29C34.9702 31.53 34.9702 35.9767 35.0102 40.63C35.0502 44.57 33.0702 46.5167 29.0702 46.47C25.3702 46.4233 23.5235 44.5567 23.5302 40.87C23.5368 36.53 23.5402 32.06 23.5402 27.46C23.5402 27.1533 23.3868 27 23.0802 27H19.0002C18.7002 27 18.5535 27.15 18.5602 27.45C18.6268 31.9033 18.6268 36.5967 18.5602 41.53C18.4935 45.9233 20.5468 48.9367 24.7202 50.57Z" stroke="#91999C" stroke-width="2"/>
<path d="M53.1296 42.7003C54.3496 44.4003 53.1396 46.3603 51.2096 46.6503C48.1763 47.1236 45.7063 46.5436 43.7996 44.9103C43.613 44.7503 43.433 44.757 43.2596 44.9303L40.5596 47.6203C40.393 47.787 40.3996 47.9536 40.5796 48.1203C44.5396 51.6603 51.5696 52.9503 56.1596 49.3703C60.5796 45.9403 59.6296 39.2303 54.0196 37.6003C52.073 37.0336 50.0663 36.517 47.9996 36.0503C47.6935 35.9811 47.4125 35.8275 47.1882 35.6067C46.9639 35.3859 46.8051 35.1067 46.7296 34.8003C46.4196 33.4503 47.1996 32.2303 48.4996 31.8903C51.053 31.217 53.193 31.5936 54.9196 33.0203C55.2596 33.2936 55.583 33.277 55.8896 32.9703L58.2096 30.6503C58.5696 30.2903 58.543 29.9636 58.1296 29.6703C53.363 26.257 48.673 26.0303 44.0596 28.9903C41.933 30.3503 41.043 32.517 41.3896 35.4903C41.8996 39.9703 47.4996 40.7803 50.9496 41.3503C51.3837 41.4201 51.7998 41.5753 52.1739 41.807C52.5481 42.0387 52.8729 42.3423 53.1296 42.7003Z" stroke="#91999C" stroke-width="2"/>
<path d="M48.8701 66.15C48.4768 66.13 48.1534 66.2766 47.9001 66.59C47.6201 66.9433 47.7034 67.0766 48.1501 66.99L50.5201 66.53C51.0001 66.4366 51.0335 66.26 50.6201 66C50.2268 65.7533 49.8168 65.76 49.3901 66.02C49.233 66.1114 49.0528 66.1565 48.8701 66.15Z" stroke="#F6FEFE" stroke-width="2"/>
<path d="M41.2602 6.08011C41.2402 6.0746 41.2191 6.07488 41.1992 6.0809C41.1793 6.08692 41.1616 6.09844 41.148 6.11413C41.1344 6.12982 41.1255 6.14904 41.1224 6.16956C41.1192 6.19008 41.122 6.21107 41.1302 6.23011C42.0436 7.93011 43.3469 9.10011 45.0402 9.74011C45.2231 9.80957 45.4195 9.84008 45.6173 9.82976C45.8152 9.81944 46.0102 9.7685 46.1902 9.68011C46.6769 9.44677 46.9336 9.15344 46.9602 8.80011C47.0469 7.86011 46.6302 7.28677 45.7102 7.08011L41.2602 6.08011Z" stroke="#89BAC3" stroke-width="2"/>
<path d="M34.9597 6.45031C33.6797 6.89031 31.9297 6.79031 30.8297 7.53031C30.6783 7.63128 30.552 7.76564 30.4606 7.92306C30.3692 8.08049 30.3152 8.25677 30.3026 8.43836C30.2901 8.61995 30.3194 8.80199 30.3882 8.97049C30.457 9.13899 30.5636 9.28946 30.6997 9.41031C31.0264 9.69698 31.393 9.84698 31.7997 9.86031C32.0397 9.87364 32.263 9.82364 32.4697 9.71031C33.6564 9.04364 34.673 8.23364 35.5197 7.28031C36.3864 6.29364 36.1997 6.01698 34.9597 6.45031Z" stroke="#89BAC3" stroke-width="2"/>
<path d="M26.7405 9.76001C25.5005 10.6533 24.3105 11.54 23.1705 12.42C23.1038 12.4733 23.0505 12.54 23.0105 12.62C22.9372 12.78 22.9805 12.9433 23.1405 13.11C23.195 13.1646 23.2662 13.1998 23.3437 13.2106C23.4211 13.2214 23.5006 13.2072 23.5705 13.17C26.1905 11.7633 28.1005 9.90335 29.3005 7.59001C29.3293 7.53541 29.3417 7.47362 29.3362 7.41212C29.3307 7.35062 29.3076 7.29201 29.2695 7.24339C29.2315 7.19476 29.1801 7.15818 29.1218 7.13806C29.0634 7.11795 29.0004 7.11515 28.9405 7.13001C26.2405 7.72001 22.1005 9.53001 21.1405 12.32C21.0005 12.72 21.1038 12.7967 21.4505 12.55L26.2305 9.17001C26.3905 9.05668 26.5238 9.08335 26.6305 9.25001L26.7905 9.51001C26.8505 9.60335 26.8338 9.68668 26.7405 9.76001Z" stroke="#89BAC3" stroke-width="2"/>
<path d="M50.9901 9.21003C52.5034 10.0634 53.9801 11.0434 55.4201 12.15C56.6334 13.0834 56.8101 12.9167 55.9501 11.65C54.4234 9.42337 51.9501 7.9267 48.5301 7.16003C47.9368 7.0267 47.7934 7.22337 48.1001 7.75003C49.4934 10.1967 51.4434 12.0034 53.9501 13.17C54.0634 13.23 54.1468 13.2 54.2001 13.08L54.3301 12.79C54.3901 12.6634 54.3601 12.5634 54.2401 12.49C52.9201 11.6567 51.7634 10.65 50.7701 9.47003C50.3501 8.9767 50.4234 8.89003 50.9901 9.21003Z" stroke="#89BAC3" stroke-width="2"/>
<path d="M35.0998 11.8202C33.9598 10.6602 31.0598 11.0802 29.5098 11.4002C29.0898 11.4868 29.0198 11.6902 29.2998 12.0102C30.7798 13.7502 33.1198 12.9302 34.9798 12.3302C35.0292 12.3131 35.0735 12.2838 35.1086 12.245C35.1436 12.2062 35.1683 12.1591 35.1802 12.1082C35.1922 12.0573 35.1911 12.0042 35.1771 11.9539C35.163 11.9035 35.1364 11.8575 35.0998 11.8202Z" stroke="#89BAC3" stroke-width="2"/>
<path d="M42.4404 12.39C44.4004 13.11 46.6104 13.56 48.2104 11.83C48.4704 11.5433 48.4104 11.3767 48.0304 11.33C46.4238 11.13 44.9004 11.07 43.4604 11.15C42.9804 11.1767 42.5838 11.3733 42.2704 11.74C42.2277 11.7902 42.1978 11.85 42.1831 11.9143C42.1685 11.9786 42.1695 12.0455 42.1862 12.1093C42.2029 12.1731 42.2347 12.2319 42.279 12.2808C42.3232 12.3296 42.3786 12.3671 42.4404 12.39Z" stroke="#89BAC3" stroke-width="2"/>
<path d="M16.67 15.82C15.6033 17.82 14.3266 19.8567 12.84 21.93C12.8133 21.9633 12.8166 21.9933 12.85 22.02L13.22 22.35C13.34 22.4633 13.4566 22.4567 13.57 22.33C15.65 20.09 17.0166 17.6767 17.67 15.09C17.7067 14.9385 17.6973 14.7795 17.6428 14.6334C17.5883 14.4873 17.4913 14.3609 17.3643 14.2705C17.2373 14.1801 17.0861 14.1299 16.9303 14.1262C16.7744 14.1225 16.6211 14.1657 16.49 14.25C13.57 16.1767 11.8366 18.6933 11.29 21.8C10.9366 23.82 11.1866 23.8967 12.04 22.03C13.12 19.6567 14.3533 17.57 15.74 15.77C15.8333 15.6567 15.9566 15.5767 16.11 15.53C16.2233 15.4967 16.34 15.48 16.46 15.48C16.5005 15.4786 16.5407 15.4879 16.5765 15.5071C16.6123 15.5262 16.6424 15.5545 16.6637 15.589C16.6851 15.6235 16.6969 15.6631 16.698 15.7037C16.6991 15.7442 16.6894 15.7844 16.67 15.82Z" stroke="#89BAC3" stroke-width="2"/>
<path d="M60.9096 15.7001C60.9271 15.6605 60.9542 15.6259 60.9884 15.5995C61.0226 15.573 61.0629 15.5555 61.1056 15.5485C61.1483 15.5416 61.1921 15.5454 61.2329 15.5596C61.2738 15.5739 61.3105 15.5981 61.3396 15.6301C63.2596 17.7234 64.6263 20.1201 65.4396 22.8201C65.5129 23.0467 65.6563 23.1134 65.8696 23.0201L66.1596 22.8901C66.2729 22.8434 66.3196 22.7601 66.2996 22.6401C65.5996 19.1067 63.8896 16.4167 61.1696 14.5701C59.8629 13.6901 59.4063 14.0134 59.7996 15.5401C60.3063 17.5001 61.2063 19.2501 62.4996 20.7901C64.4329 23.1034 64.7096 22.9167 63.3296 20.2301C62.9163 19.4301 62.1063 18.3067 60.8996 16.8601C60.8034 16.7421 60.7413 16.6004 60.7201 16.4505C60.699 16.3005 60.7195 16.1482 60.7796 16.0101L60.9096 15.7001Z" stroke="#89BAC3" stroke-width="2"/>
<path d="M14.45 25.2699C14.23 25.6966 13.73 26.3666 12.95 27.2799C12.8366 27.4132 12.8433 27.5432 12.97 27.6699L13.19 27.8899C13.2966 27.9966 13.41 28.0032 13.53 27.9099C15.67 26.1599 15.88 24.0299 17.3 21.8099C17.5666 21.3966 17.4833 21.2999 17.05 21.5199C13.79 23.1999 11.6166 25.5599 10.53 28.5999C10.51 28.6599 10.53 28.7032 10.59 28.7299L10.82 28.8299C11.0266 28.9166 11.18 28.8599 11.28 28.6599C12.0733 27.0666 12.9366 25.7966 13.87 24.8499C14.9566 23.7566 15.15 23.8966 14.45 25.2699Z" stroke="#89BAC3" stroke-width="2"/>
<path d="M62.88 24.4502C64.1666 25.5035 65.1866 26.9402 65.94 28.7602C65.98 28.8535 66.0466 28.8769 66.14 28.8302L66.44 28.6902C66.6466 28.5969 66.71 28.4435 66.63 28.2302C65.49 25.2835 63.3866 23.0669 60.32 21.5802C59.96 21.4069 59.87 21.4969 60.05 21.8502L62.93 27.4602C63.011 27.6237 63.147 27.7538 63.3147 27.8286C63.4824 27.9033 63.6715 27.918 63.85 27.8702C64.41 27.7102 64.5566 27.4735 64.29 27.1602C63.6166 26.3535 63.05 25.5302 62.59 24.6902C62.2633 24.1035 62.36 24.0235 62.88 24.4502Z" stroke="#89BAC3" stroke-width="2"/>
<path d="M69.5605 36.4799C69.6301 36.5388 69.7126 36.5805 69.8014 36.6015C69.8902 36.6225 69.9826 36.6223 70.0713 36.6008C70.1599 36.5794 70.2423 36.5373 70.3116 36.4781C70.381 36.4189 70.4354 36.3441 70.4705 36.2599C71.6305 33.4733 71.0771 30.6833 68.8105 27.8899C68.4705 27.4633 68.2738 27.5233 68.2205 28.0699C67.9805 30.6899 67.2605 34.5499 69.5605 36.4799Z" stroke="#89BAC3" stroke-width="2"/>
<path d="M67.0103 36.7899L67.2303 43.0999C67.237 43.3132 67.337 43.3799 67.5303 43.2999C67.6703 43.2466 67.7636 43.1466 67.8103 42.9999C68.8436 39.4732 68.107 36.0832 65.6003 32.8299C65.267 32.3966 65.097 32.4532 65.0903 32.9999L65.0703 40.2199C65.0703 40.6132 65.267 40.8166 65.6603 40.8299L66.0203 40.8399C66.2603 40.8466 66.3836 40.7299 66.3903 40.4899C66.4503 39.1499 65.8303 37.9299 66.5103 36.6799C66.817 36.0999 66.9836 36.1366 67.0103 36.7899Z" stroke="#89BAC3" stroke-width="2"/>
<path d="M69.6996 44.94C68.873 47.3467 67.5163 49.54 65.6296 51.52C65.563 51.5934 65.5663 51.66 65.6397 51.72L65.8497 51.9C65.9112 51.9541 65.9893 51.9855 66.0711 51.9891C66.153 51.9927 66.2335 51.9684 66.2996 51.92C69.1463 49.7934 70.6263 46.78 70.7396 42.88C70.773 41.8667 70.443 41.7334 69.7497 42.48C68.2897 44.0534 67.183 45.9067 66.4297 48.04C66.3497 48.2534 66.4197 48.3934 66.6397 48.46L67.1196 48.6C67.1596 48.6067 67.1863 48.5934 67.1996 48.56C67.8463 46.9467 68.5496 45.67 69.3096 44.73C69.843 44.07 69.973 44.14 69.6996 44.94Z" stroke="#89BAC3" stroke-width="2"/>
<path d="M14.6603 50.5902C14.707 50.5835 14.7337 50.6002 14.7403 50.6402C14.927 51.8202 15.4603 52.7835 16.3403 53.5302C16.707 53.8502 16.8903 53.7668 16.8903 53.2802C16.8837 52.7202 16.7337 52.1968 16.4403 51.7102C15.3537 49.9102 14.2403 48.0668 13.1003 46.1802C12.8737 45.8002 12.727 45.8302 12.6603 46.2702C12.0603 50.3235 13.2537 53.6235 16.2403 56.1702C16.2737 56.1968 16.3037 56.1968 16.3303 56.1702L16.5803 55.9302C16.7537 55.7568 16.757 55.5802 16.5903 55.4002C15.337 54.0868 14.5303 52.6202 14.1703 51.0002C14.1237 50.8002 14.2037 50.6802 14.4103 50.6402L14.6603 50.5902Z" stroke="#89BAC3" stroke-width="2"/>
<path d="M63.1296 51.4C62.7763 52.7067 62.0796 53.91 61.0396 55.01C60.2796 55.8167 60.4196 56.03 61.4596 55.65C64.2296 54.63 64.9496 48.72 64.6796 46.34C64.6396 45.98 64.513 45.9467 64.2996 46.24C62.7863 48.3467 61.4796 50.6034 60.3796 53.01C60.013 53.8167 60.1963 53.9734 60.9296 53.48C61.763 52.92 62.2796 52.13 62.4796 51.11C62.493 51.0367 62.5363 51.0034 62.6096 51.01L62.8796 51.04C63.113 51.0534 63.1963 51.1734 63.1296 51.4Z" stroke="#89BAC3" stroke-width="2"/>
<path d="M63.1702 57.3403C61.7702 59.1269 59.9102 60.5569 57.5902 61.6303C57.4769 61.6836 57.4469 61.7669 57.5002 61.8803L57.6302 62.1303C57.7302 62.3236 57.8802 62.3869 58.0802 62.3203C61.2335 61.2136 63.7702 59.0603 65.6902 55.8603C65.7233 55.8088 65.7399 55.7488 65.738 55.6879C65.7361 55.6269 65.7158 55.5677 65.6795 55.5176C65.6432 55.4674 65.5926 55.4286 65.5341 55.406C65.4755 55.3833 65.4116 55.3779 65.3502 55.3903C62.5235 55.9836 60.3369 57.2869 58.7902 59.3003C58.6702 59.4603 58.6902 59.6003 58.8502 59.7203L59.2302 60.0203C59.2569 60.0403 59.2869 60.0369 59.3202 60.0103C60.5069 58.8236 61.7002 57.8369 62.9002 57.0503C63.5935 56.5903 63.6835 56.6869 63.1702 57.3403Z" stroke="#89BAC3" stroke-width="2"/>
<path d="M24.7103 62.2503C24.837 62.2703 24.9403 62.2203 25.0203 62.1003C25.2937 61.687 25.247 61.3136 24.8803 60.9803L20.2303 56.8403C19.697 56.367 19.5003 56.477 19.6403 57.1703C20.2337 60.0836 21.8437 62.2936 24.4703 63.8003C24.9703 64.087 25.0703 63.9836 24.7703 63.4903C24.6037 63.2236 24.467 62.957 24.3603 62.6903C24.2137 62.337 24.3303 62.1903 24.7103 62.2503Z" stroke="#89BAC3" stroke-width="2"/>
<path d="M52.7398 63.0299C52.6931 63.1099 52.6565 63.1966 52.6298 63.2899C52.4298 63.8699 52.5898 63.9966 53.1098 63.6699C55.3765 62.2632 56.8965 60.1433 57.6698 57.3099C57.8298 56.7366 57.6665 56.6266 57.1798 56.9799C55.3331 58.3066 53.6765 59.7666 52.2098 61.3599C51.9831 61.6066 52.0065 61.8233 52.2798 62.0099L52.5498 62.1899C52.8631 62.4099 52.9265 62.6899 52.7398 63.0299Z" stroke="#89BAC3" stroke-width="2"/>
<path d="M34.86 66.3202C35.4533 66.3735 35.67 66.0768 35.51 65.4302C35.479 65.3109 35.4188 65.2016 35.3348 65.1125C35.2509 65.0233 35.146 64.9571 35.03 64.9202L29.98 63.2702C29.3667 63.0702 29.2167 63.2535 29.53 63.8202C30.5167 65.5935 32.1433 66.8702 34.41 67.6502C34.93 67.8302 35.05 67.6835 34.77 67.2102C34.6633 67.0302 34.5967 66.8335 34.57 66.6202C34.5655 66.5805 34.5697 66.5404 34.5825 66.5026C34.5954 66.4648 34.6164 66.4303 34.6441 66.4016C34.6718 66.3729 34.7056 66.3507 34.7429 66.3367C34.7803 66.3226 34.8202 66.3169 34.86 66.3202Z" stroke="#89BAC3" stroke-width="2"/>
<path d="M42.72 66.9503L42.65 67.2003C42.5367 67.6403 42.6934 67.7836 43.12 67.6303C44.9734 66.9436 46.4 65.8703 47.4 64.4103C48.2 63.2436 47.9534 62.9436 46.66 63.5103C45.04 64.2303 42.72 64.0603 41.67 65.6803C41.639 65.7275 41.6192 65.7813 41.6122 65.8372C41.6052 65.8931 41.6112 65.9497 41.6297 66.0023C41.6482 66.0548 41.6787 66.102 41.7187 66.1399C41.7587 66.1777 41.8071 66.2053 41.86 66.2203C42.16 66.307 42.42 66.457 42.64 66.6703C42.72 66.7503 42.7467 66.8436 42.72 66.9503Z" stroke="#89BAC3" stroke-width="2"/>
<path d="M35.4305 68.0402L32.6105 70.2402C32.5802 70.2655 32.5611 70.3017 32.5573 70.3411C32.5536 70.3804 32.5655 70.4196 32.5905 70.4502L32.6405 70.5202C32.7487 70.6594 32.8933 70.768 33.066 70.8398C33.2387 70.9116 33.4362 70.9453 33.6471 70.9387C33.8579 70.9322 34.0781 70.8857 34.2949 70.8019C34.5117 70.7181 34.7209 70.5985 34.9105 70.4502L35.0805 70.3102C35.4624 70.012 35.7421 69.615 35.8584 69.2063C35.9746 68.7976 35.9178 68.4106 35.7005 68.1302L35.6405 68.0602C35.6151 68.0299 35.5789 68.0108 35.5396 68.007C35.5003 68.0033 35.4611 68.0152 35.4305 68.0402Z" stroke="#89BAC3" stroke-width="2"/>
<path d="M44.4394 70.8396C44.5595 70.6744 44.505 70.3927 44.2879 70.0566C44.0709 69.7204 43.7091 69.3572 43.2821 69.047C42.8552 68.7368 42.398 68.5049 42.0112 68.4024C41.6244 68.2998 41.3397 68.335 41.2196 68.5002C41.0996 68.6654 41.1541 68.9471 41.3711 69.2833C41.5882 69.6195 41.95 69.9826 42.3769 70.2928C42.8039 70.603 43.2611 70.8349 43.6478 70.9374C44.0346 71.04 44.3194 71.0048 44.4394 70.8396Z" stroke="#89BAC3" stroke-width="2"/>
<path d="M23.6499 61.94C24.0966 62.1933 24.1899 62.1 23.9299 61.66C23.6166 61.1267 23.1966 60.7167 22.6699 60.43C22.2033 60.1767 22.1099 60.2733 22.3899 60.72C22.7099 61.24 23.1299 61.6467 23.6499 61.94Z" stroke="#89BAC3" stroke-width="2"/>
<path d="M55.17 59.8899C54.2967 60.4566 53.62 61.0866 53.14 61.7799C52.7667 62.3133 52.86 62.4166 53.42 62.0899C54.1733 61.6366 54.8467 60.9966 55.44 60.1699C55.84 59.6033 55.75 59.5099 55.17 59.8899Z" stroke="#89BAC3" stroke-width="2"/>
<path d="M77.0001 38.5098C77.0001 43.5604 76.0053 48.5616 74.0725 53.2278C72.1397 57.894 69.3067 62.1338 65.7354 65.7051C62.1641 69.2765 57.9243 72.1094 53.2581 74.0422C48.5919 75.975 43.5907 76.9698 38.5401 76.9698C28.3399 76.9698 18.5574 72.9178 11.3448 65.7051C4.1321 58.4925 0.0800781 48.71 0.0800781 38.5098C0.0800781 28.3096 4.1321 18.5271 11.3448 11.3145C18.5574 4.10183 28.3399 0.0498047 38.5401 0.0498047C48.7403 0.0498047 58.5228 4.10183 65.7354 11.3145C72.9481 18.5271 77.0001 28.3096 77.0001 38.5098ZM9.13008 26.6898C9.17675 26.6365 9.22341 26.5865 9.27008 26.5398C9.30341 25.7131 9.14674 25.1765 8.80008 24.9298C8.50008 24.7098 8.30674 24.7798 8.22008 25.1398C7.84674 26.7065 7.25674 28.2131 6.45008 29.6598C4.19008 33.6598 6.13008 35.6798 7.30008 39.2898C7.74008 40.6498 7.40341 40.8831 6.29008 39.9898L5.46008 39.3098C5.06674 39.0031 4.91008 39.0931 4.99008 39.5798C5.72008 44.3698 5.96008 48.2898 9.73008 51.8898C10.7501 52.8598 12.4501 52.8598 13.0501 54.1798C13.0234 54.5398 12.9334 54.7098 12.7801 54.6898C12.6734 54.6765 12.2501 54.6331 11.5101 54.5598C11.1634 53.9931 10.4167 53.8365 9.27008 54.0898C8.91008 54.1698 8.86008 54.3398 9.12008 54.5998C13.0801 58.5898 15.1901 63.2298 21.5401 63.6498C21.9201 63.6698 22.1934 63.8531 22.3601 64.1998C22.5201 64.5265 22.7801 64.6865 23.1401 64.6798L26.2101 64.6498C26.7834 65.2631 26.9467 65.6365 26.7001 65.7698C25.9134 66.1898 25.9601 66.4698 26.8401 66.6098C27.9334 66.7831 29.0834 67.0331 30.2901 67.3598C30.4834 67.6198 30.6034 67.8831 30.6501 68.1498C30.659 68.213 30.6542 68.2773 30.6358 68.3382C30.6174 68.3991 30.5861 68.4551 30.5439 68.502C30.5018 68.5489 30.45 68.5856 30.3923 68.6094C30.3345 68.6333 30.2723 68.6436 30.2101 68.6398C27.1034 68.4798 24.3801 67.3431 22.0401 65.2298C21.8267 65.0431 21.5767 64.9431 21.2901 64.9298C20.7634 64.9031 20.2701 65.0465 19.8101 65.3598C19.2634 65.7265 19.3201 65.9398 19.9801 65.9998C21.3134 66.1065 22.6501 66.6598 23.9901 67.6598C25.7601 68.9798 27.9701 69.3398 30.1101 69.8098C30.4901 69.8898 30.6667 70.1265 30.6401 70.5198L30.6101 70.9698C30.5834 71.3498 30.7567 71.5798 31.1301 71.6598C38.4401 73.2998 40.3601 64.6098 33.7601 63.3898C32.0201 63.0698 30.2934 62.5598 28.5801 61.8598C28.1534 61.6865 27.9501 61.8298 27.9701 62.2898L27.9901 62.7498C28.0501 63.9765 27.7701 64.0565 27.1501 62.9898C26.5401 61.9298 26.0701 60.7398 25.0901 59.9498C23.2234 58.4631 21.3901 56.9065 19.5901 55.2798C19.2301 54.9531 19.0267 55.0298 18.9801 55.5098C18.9734 55.6098 18.9034 55.6631 18.7701 55.6698C18.3967 55.6698 18.1934 55.4865 18.1601 55.1198C18.0301 53.6598 17.5901 52.2398 16.8201 50.9898C15.5701 48.9798 13.4001 46.0798 13.5401 43.6298C13.5534 43.3365 13.4201 43.2298 13.1401 43.3098L12.7601 43.4198C12.1534 43.5931 11.9767 43.3931 12.2301 42.8198C13.7201 39.4098 13.3301 36.5998 13.1101 33.0398C13.0834 32.5731 13.1734 32.1298 13.3801 31.7098C13.5267 31.4231 13.6401 31.1298 13.7201 30.8298C13.8401 30.3498 13.6701 30.2031 13.2101 30.3898C13.1101 30.4298 13.0101 30.4298 12.9101 30.3898C12.5567 30.2631 12.5301 30.0865 12.8301 29.8598C14.8367 28.3465 16.3334 26.3231 17.3201 23.7898C17.8467 22.4431 18.8001 21.3731 20.1801 20.5798C20.3934 20.4531 20.4834 20.2698 20.4501 20.0298C20.4367 19.9098 20.3834 19.7965 20.2901 19.6898C20.2101 19.5231 20.3167 19.3798 20.6101 19.2598C22.6901 18.6131 24.6234 17.5465 26.4101 16.0598C26.7101 15.8065 27.0534 15.6531 27.4401 15.5998C28.1467 15.4998 28.5767 15.1398 28.7301 14.5198C28.8301 14.1065 29.0834 13.9631 29.4901 14.0898C32.7301 15.1098 34.8401 12.2598 38.2601 13.3198C38.6001 13.4265 38.9334 13.4098 39.2601 13.2698C40.3101 12.8098 41.6501 12.8998 42.6801 13.3898C44.4401 14.2231 46.1967 14.4765 47.9501 14.1498C48.1567 14.1165 48.3334 14.1731 48.4801 14.3198C48.5934 14.4398 48.6567 14.5831 48.6701 14.7498C48.6846 14.8949 48.7435 15.0318 48.8386 15.1411C48.9336 15.2505 49.06 15.327 49.2001 15.3598C50.3267 15.6131 51.2101 16.0498 51.8501 16.6698C53.3834 18.1298 55.3467 18.9531 57.7401 19.1398C57.4667 19.2865 57.1934 19.4365 56.9201 19.5898C57.4334 20.3765 58.0467 21.2031 58.7601 22.0698C59.4467 22.9031 59.9967 23.7698 60.4101 24.6698C61.4034 26.8565 62.7634 28.5798 64.4901 29.8398C64.7834 30.0531 64.7734 30.2565 64.4601 30.4498C64.3801 30.5031 64.2934 30.5065 64.2001 30.4598C63.5534 30.1265 63.3701 30.2965 63.6501 30.9698C64.3234 32.5898 64.4434 34.3998 64.0101 36.3998C63.5101 38.6698 64.1401 40.6698 65.0501 42.7198C65.2101 43.0798 65.1101 43.3365 64.7501 43.4898C64.6701 43.5231 64.5867 43.5265 64.5001 43.4998C64.0401 43.3731 63.7967 43.5498 63.7701 44.0298C63.6834 45.4898 63.2301 46.7698 62.4101 47.8698C60.4701 50.4431 59.3801 52.9098 59.1401 55.2698C59.1001 55.6431 58.9201 55.7298 58.6001 55.5298L58.3301 55.3598C58.0501 55.1865 57.7867 55.2065 57.5401 55.4198C54.9501 57.6898 51.4301 59.7698 50.3401 63.0698C50.2801 63.2565 50.1534 63.3831 49.9601 63.4498C49.5467 63.5898 49.3367 63.4398 49.3301 62.9998L49.3201 62.1698C49.3134 61.6965 49.1034 61.5698 48.6901 61.7898L47.5501 62.3898C47.1034 62.6231 46.6301 62.7698 46.1301 62.8298C43.6034 63.1498 41.8134 63.8531 40.7601 64.9398C38.9401 66.8065 38.9934 68.6831 40.9201 70.5698C42.1801 71.8031 43.9534 72.1598 46.2401 71.6398C46.6934 71.5398 46.8001 71.2898 46.5601 70.8898L46.4201 70.6498C46.1267 70.1698 46.2601 69.8931 46.8201 69.8198C50.0934 69.3931 52.9467 68.2598 55.3801 66.4198C55.7267 66.1598 56.1167 66.0265 56.5501 66.0198L57.4801 65.9998C58.0067 65.9865 58.0734 65.8031 57.6801 65.4498C57.2801 65.0965 56.8101 64.9031 56.2701 64.8698C55.9367 64.8498 55.6467 64.9498 55.4001 65.1698C52.8734 67.3698 50.1534 68.5365 47.2401 68.6698C46.6934 68.6965 46.3834 68.9731 46.3101 69.4998C46.2967 69.5798 46.2401 69.6331 46.1401 69.6598C45.7667 69.7465 45.6367 69.6098 45.7501 69.2498C46.4434 66.9898 47.7667 65.5431 49.7201 64.9098C51.3601 64.3698 52.9301 64.8398 54.6201 64.7098C54.8534 64.6965 54.9934 64.5731 55.0401 64.3398C55.0534 64.2531 55.0801 64.1731 55.1201 64.0998C55.2934 63.7865 55.5601 63.6198 55.9201 63.5998C62.0601 63.2398 64.4001 58.5098 68.2401 54.5098C68.6667 54.0631 68.5734 53.8698 67.9601 53.9298C66.8067 54.0365 65.7334 54.2898 64.7401 54.6898C64.7044 54.7052 64.6658 54.7126 64.6268 54.7118C64.5878 54.7109 64.5491 54.7017 64.5134 54.6848C64.4777 54.6679 64.4456 54.6436 64.4192 54.6134C64.3928 54.5833 64.3727 54.548 64.3601 54.5098L64.2701 54.2498C64.2216 54.1092 64.23 53.9551 64.2935 53.8206C64.357 53.6861 64.4706 53.5817 64.6101 53.5298C70.3901 51.4498 72.0501 45.1098 72.2001 39.4398C72.2134 38.9531 72.0967 38.9198 71.8501 39.3398C71.6301 39.7131 71.3067 39.9498 70.8801 40.0498C69.9267 40.2831 69.6501 39.9531 70.0501 39.0598C70.9201 37.1498 72.2301 34.7798 71.9301 32.7098C71.5101 29.7698 69.3001 27.7998 69.1701 24.9698C69.1434 24.4431 68.9634 24.3831 68.6301 24.7898C68.0801 25.4598 68.1601 25.8198 67.8801 26.5498C67.8474 26.6398 67.7832 26.7139 67.6994 26.7583C67.6157 26.8027 67.5181 26.8143 67.425 26.791C67.3319 26.7678 67.2496 26.7112 67.1935 26.6318C67.1373 26.5524 67.1112 26.4557 67.1201 26.3598C67.7534 20.1265 65.2934 15.5598 59.7401 12.6598C59.2401 12.3931 59.0001 12.5465 59.0201 13.1198C59.0267 13.2465 59.0001 13.3698 58.9401 13.4898C58.7001 13.9765 58.4501 13.9831 58.1901 13.5098C56.6701 10.7398 54.2801 7.9998 51.1801 7.1198C50.0334 6.79314 48.9601 6.32647 47.9601 5.7198C47.6601 5.53314 47.3401 5.4898 47.0001 5.5898C44.7601 6.24314 42.4601 5.90647 40.1001 4.5798C39.6134 4.2998 39.4301 4.43647 39.5501 4.9898C39.9034 6.63647 40.9034 8.05314 42.5501 9.2398C43.3567 9.8198 43.2767 10.2265 42.3101 10.4598C41.2567 10.7131 40.2601 11.1898 39.3201 11.8898C39.0467 12.0898 38.7567 12.1198 38.4501 11.9798L34.1801 10.0398C34.1556 10.0281 34.1344 10.0103 34.1187 9.98813C34.1029 9.96596 34.0931 9.94015 34.0901 9.91314C34.0871 9.88612 34.091 9.85878 34.1015 9.8337C34.112 9.80862 34.1287 9.78663 34.1501 9.7698C36.0034 8.52314 37.2301 6.97314 37.8301 5.1198C38.0501 4.4398 37.8467 4.27314 37.2201 4.6198C35.5001 5.55314 33.6101 6.01647 31.5501 6.0098C31.2234 6.00314 30.9501 5.8798 30.7301 5.6398C30.4634 5.3398 30.1634 5.29981 29.8301 5.5198C28.6901 6.23981 27.4534 6.78314 26.1201 7.1498C23.0001 7.9998 20.6601 10.7698 19.1501 13.5998C18.9101 14.0598 18.6567 14.0698 18.3901 13.6298C18.2434 13.3898 18.2034 13.1331 18.2701 12.8598C18.2846 12.8086 18.2836 12.7542 18.2672 12.7035C18.2509 12.6528 18.22 12.6081 18.1783 12.575C18.1366 12.5419 18.086 12.5218 18.033 12.5173C17.9799 12.5128 17.9267 12.5241 17.8801 12.5498C12.2267 15.4231 9.70008 19.8865 10.3001 25.9398C10.3267 26.2131 10.2234 26.4165 9.99008 26.5498C9.79674 26.6631 9.51008 26.7098 9.13008 26.6898ZM24.7201 50.5698C29.1934 52.3165 33.2667 51.6665 36.9401 48.6198C38.8001 47.0731 39.7467 45.2698 39.7801 43.2098C39.8467 38.4631 39.8667 33.1698 39.8401 27.3298C39.8334 27.1165 39.7234 27.0098 39.5101 27.0098L35.3101 26.9998C35.1167 26.9998 35.0167 27.0965 35.0101 27.2898C34.9701 31.5298 34.9701 35.9765 35.0101 40.6298C35.0501 44.5698 33.0701 46.5165 29.0701 46.4698C25.3701 46.4231 23.5234 44.5565 23.5301 40.8698C23.5367 36.5298 23.5401 32.0598 23.5401 27.4598C23.5401 27.1531 23.3867 26.9998 23.0801 26.9998H19.0001C18.7001 26.9998 18.5534 27.1498 18.5601 27.4498C18.6267 31.9031 18.6267 36.5965 18.5601 41.5298C18.4934 45.9231 20.5467 48.9365 24.7201 50.5698ZM53.1301 42.6998C54.3501 44.3998 53.1401 46.3598 51.2101 46.6498C48.1767 47.1231 45.7067 46.5431 43.8001 44.9098C43.6134 44.7498 43.4334 44.7565 43.2601 44.9298L40.5601 47.6198C40.3934 47.7865 40.4001 47.9531 40.5801 48.1198C44.5401 51.6598 51.5701 52.9498 56.1601 49.3698C60.5801 45.9398 59.6301 39.2298 54.0201 37.5998C52.0734 37.0331 50.0667 36.5165 48.0001 36.0498C47.6939 35.9806 47.4129 35.827 47.1886 35.6062C46.9643 35.3854 46.8055 35.1062 46.7301 34.7998C46.4201 33.4498 47.2001 32.2298 48.5001 31.8898C51.0534 31.2165 53.1934 31.5931 54.9201 33.0198C55.2601 33.2931 55.5834 33.2765 55.8901 32.9698L58.2101 30.6498C58.5701 30.2898 58.5434 29.9631 58.1301 29.6698C53.3634 26.2565 48.6734 26.0298 44.0601 28.9898C41.9334 30.3498 41.0434 32.5165 41.3901 35.4898C41.9001 39.9698 47.5001 40.7798 50.9501 41.3498C51.3841 41.4196 51.8002 41.5748 52.1744 41.8065C52.5485 42.0382 52.8733 42.3418 53.1301 42.6998ZM48.8701 66.1498C48.4767 66.1298 48.1534 66.2765 47.9001 66.5898C47.6201 66.9431 47.7034 67.0765 48.1501 66.9898L50.5201 66.5298C51.0001 66.4365 51.0334 66.2598 50.6201 65.9998C50.2267 65.7531 49.8167 65.7598 49.3901 66.0198C49.233 66.1112 49.0527 66.1563 48.8701 66.1498Z" fill="white"/>
<path d="M56.92 19.5901C57.5533 19.1434 57.81 18.5868 57.69 17.9201C57.5833 17.3268 57.7633 17.2001 58.23 17.5401C58.3033 17.5934 58.3833 17.6301 58.47 17.6501C59.6767 17.9234 59.84 17.6268 58.96 16.7601C57.14 14.9734 54.84 14.2468 52.06 14.5801C51.5267 14.6468 51.4833 14.8334 51.93 15.1401L57.74 19.1401C55.3467 18.9534 53.3833 18.1301 51.85 16.6701C51.21 16.0501 50.3267 15.6134 49.2 15.3601C49.0599 15.3272 48.9335 15.2508 48.8385 15.1414C48.7435 15.032 48.6846 14.8952 48.67 14.7501C48.6567 14.5834 48.5933 14.4401 48.48 14.3201C48.3333 14.1734 48.1567 14.1168 47.95 14.1501C46.1967 14.4768 44.44 14.2234 42.68 13.3901C41.65 12.9001 40.31 12.8101 39.26 13.2701C38.9333 13.4101 38.6 13.4268 38.26 13.3201C34.84 12.2601 32.73 15.1101 29.49 14.0901C29.0833 13.9634 28.83 14.1068 28.73 14.5201C28.5767 15.1401 28.1467 15.5001 27.44 15.6001C27.0533 15.6534 26.71 15.8068 26.41 16.0601C24.6233 17.5468 22.69 18.6134 20.61 19.2601C20.29 19.0201 20.1367 18.8034 20.15 18.6101C20.1633 18.4234 20.26 18.3001 20.44 18.2401C22.3733 17.5401 24.0933 16.5268 25.6 15.2001C25.6395 15.1659 25.6681 15.1214 25.6828 15.0714C25.6974 15.0214 25.6975 14.968 25.683 14.9171C25.6684 14.8663 25.6399 14.82 25.6005 14.7834C25.5611 14.7468 25.5125 14.7214 25.46 14.7101C22.6333 14.1701 20.1733 14.9634 18.08 17.0901C17.9133 17.2634 17.9167 17.4301 18.09 17.5901L18.36 17.8301C18.46 17.9234 18.56 17.9234 18.66 17.8301C19.8333 16.7568 21.1233 15.9668 22.53 15.4601C23.1033 15.2601 23.1633 15.3634 22.71 15.7701C22.1767 16.2501 21.53 16.6068 20.77 16.8401C20.4167 16.9468 20.1467 17.1568 19.96 17.4701C19.3467 18.5034 19.4567 19.2434 20.29 19.6901C20.3833 19.7968 20.4367 19.9101 20.45 20.0301C20.4833 20.2701 20.3933 20.4534 20.18 20.5801C18.8 21.3734 17.8467 22.4434 17.32 23.7901C16.3333 26.3234 14.8367 28.3468 12.83 29.8601C12.53 30.0868 12.5567 30.2634 12.91 30.3901C13.01 30.4301 13.11 30.4301 13.21 30.3901C13.67 30.2034 13.84 30.3501 13.72 30.8301C13.64 31.1301 13.5267 31.4234 13.38 31.7101C13.1733 32.1301 13.0833 32.5734 13.11 33.0401C13.33 36.6001 13.72 39.4101 12.23 42.8201C11.9767 43.3934 12.1533 43.5934 12.76 43.4201L13.14 43.3101C13.42 43.2301 13.5533 43.3368 13.54 43.6301C13.4 46.0801 15.57 48.9801 16.82 50.9901C17.59 52.2401 18.03 53.6601 18.16 55.1201C18.1933 55.4867 18.3967 55.6701 18.77 55.6701C18.9033 55.6634 18.9733 55.6101 18.98 55.5101C19.0267 55.0301 19.23 54.9534 19.59 55.2801C21.39 56.9067 23.2233 58.4634 25.09 59.9501C26.07 60.7401 26.54 61.9301 27.15 62.9901C27.77 64.0567 28.05 63.9767 27.99 62.7501L27.97 62.2901C27.95 61.8301 28.1533 61.6868 28.58 61.8601C30.2933 62.5601 32.02 63.0701 33.76 63.3901C40.36 64.6101 38.44 73.3001 31.13 71.6601C30.7567 71.5801 30.5833 71.3501 30.61 70.9701L30.64 70.5201C30.6667 70.1267 30.49 69.8901 30.11 69.8101C27.97 69.3401 25.76 68.9801 23.99 67.6601C22.65 66.6601 21.3133 66.1068 19.98 66.0001C19.32 65.9401 19.2633 65.7267 19.81 65.3601C20.27 65.0468 20.7633 64.9034 21.29 64.9301C21.5767 64.9434 21.8267 65.0434 22.04 65.2301C24.38 67.3434 27.1033 68.4801 30.21 68.6401C30.2722 68.6439 30.3344 68.6336 30.3922 68.6097C30.4499 68.5859 30.5017 68.5492 30.5439 68.5023C30.586 68.4554 30.6174 68.3994 30.6357 68.3385C30.6541 68.2776 30.659 68.2132 30.65 68.1501C30.6033 67.8834 30.4833 67.6201 30.29 67.3601C30.49 67.0734 30.2833 66.6368 29.67 66.0501C28.8633 65.2834 27.71 64.8168 26.21 64.6501L23.14 64.6801C22.78 64.6868 22.52 64.5267 22.36 64.2001C22.1933 63.8534 21.92 63.6701 21.54 63.6501C15.19 63.2301 13.08 58.5901 9.12001 54.6001C8.86001 54.3401 8.91001 54.1701 9.27001 54.0901C10.4167 53.8368 11.1633 53.9934 11.51 54.5601C12.7967 58.6801 15.5267 61.2534 19.7 62.2801C20.3933 62.4534 20.4567 62.3201 19.89 61.8801C18.22 60.5701 15.39 59.4301 14.33 57.5001C14.03 56.9534 14.1367 56.8568 14.65 57.2101C15.7833 57.9967 16.8533 58.8568 17.86 59.7901C17.9152 59.841 17.9864 59.8708 18.0614 59.8745C18.1363 59.8781 18.2102 59.8553 18.27 59.8101L18.52 59.6201C18.5449 59.6015 18.5657 59.578 18.5813 59.5511C18.5968 59.5242 18.6068 59.4945 18.6105 59.4636C18.6143 59.4328 18.6117 59.4015 18.603 59.3717C18.5943 59.3419 18.5797 59.3141 18.56 59.2901C16.9933 57.2568 14.9367 55.9901 12.39 55.4901C11.95 55.4034 11.91 55.2234 12.27 54.9501C12.45 54.8034 12.65 54.7868 12.87 54.9001C13.19 55.0668 13.2967 54.9768 13.19 54.6301L13.05 54.1801C12.45 52.8601 10.75 52.8601 9.73001 51.8901C5.96001 48.2901 5.72001 44.3701 4.99001 39.5801C4.91001 39.0934 5.06667 39.0034 5.46001 39.3101L6.29001 39.9901C7.40334 40.8834 7.74001 40.6501 7.30001 39.2901C6.13001 35.6801 4.19001 33.6601 6.45001 29.6601C7.25668 28.2134 7.84667 26.7068 8.22001 25.1401C8.30667 24.7801 8.50001 24.7101 8.80001 24.9301C9.14668 25.1768 9.30334 25.7134 9.27001 26.5401C7.21001 29.3101 4.88001 33.3701 6.98001 36.3501C7.20667 36.6634 7.45001 36.6768 7.71001 36.3901C8.99001 34.9968 9.58334 33.6168 9.49001 32.2501C9.37001 30.4034 9.25001 28.5501 9.13001 26.6901C9.51001 26.7101 9.79668 26.6634 9.99001 26.5501C10.2233 26.4168 10.3267 26.2134 10.3 25.9401C9.70001 19.8868 12.2267 15.4234 17.88 12.5501C17.9267 12.5244 17.9799 12.5131 18.0329 12.5176C18.086 12.5221 18.1365 12.5421 18.1782 12.5753C18.2199 12.6084 18.2508 12.6531 18.2672 12.7038C18.2835 12.7545 18.2845 12.8088 18.27 12.8601C18.2033 13.1334 18.2433 13.3901 18.39 13.6301C18.6567 14.0701 18.91 14.0601 19.15 13.6001C20.66 10.7701 23 8.00008 26.12 7.15008C27.4533 6.78342 28.69 6.24009 29.83 5.52009C30.1633 5.30009 30.4633 5.34009 30.73 5.64009C30.95 5.88009 31.2233 6.00342 31.55 6.01009C33.61 6.01675 35.5 5.55342 37.22 4.62008C37.8467 4.27342 38.05 4.44008 37.83 5.12008C37.23 6.97342 36.0033 8.52342 34.15 9.77009C34.1287 9.78691 34.1119 9.8089 34.1014 9.83398C34.091 9.85906 34.087 9.8864 34.09 9.91342C34.093 9.94043 34.1029 9.96624 34.1186 9.98841C34.1344 10.0106 34.1555 10.0284 34.18 10.0401L38.45 11.9801C38.7567 12.1201 39.0467 12.0901 39.32 11.8901C40.26 11.1901 41.2567 10.7134 42.31 10.4601C43.2767 10.2268 43.3567 9.82008 42.55 9.24008C40.9033 8.05342 39.9033 6.63675 39.55 4.99008C39.43 4.43675 39.6133 4.30008 40.1 4.58008C42.46 5.90675 44.76 6.24342 47 5.59009C47.34 5.49009 47.66 5.53342 47.96 5.72009C48.96 6.32675 50.0333 6.79342 51.18 7.12008C54.28 8.00008 56.67 10.7401 58.19 13.5101C58.45 13.9834 58.7 13.9768 58.94 13.4901C59 13.3701 59.0267 13.2468 59.02 13.1201C59 12.5468 59.24 12.3934 59.74 12.6601C65.2933 15.5601 67.7533 20.1268 67.12 26.3601C67.1112 26.456 67.1373 26.5527 67.1934 26.6321C67.2495 26.7114 67.3318 26.768 67.4249 26.7913C67.5181 26.8146 67.6156 26.803 67.6994 26.7586C67.7831 26.7142 67.8473 26.6401 67.88 26.5501C68.16 25.8201 68.08 25.4601 68.63 24.7901C68.9633 24.3834 69.1433 24.4434 69.17 24.9701C69.3 27.8001 71.51 29.7701 71.93 32.7101C72.23 34.7801 70.92 37.1501 70.05 39.0601C69.65 39.9534 69.9267 40.2834 70.88 40.0501C71.3067 39.9501 71.63 39.7134 71.85 39.3401C72.0967 38.9201 72.2133 38.9534 72.2 39.4401C72.05 45.1101 70.39 51.4501 64.61 53.5301C64.4706 53.582 64.357 53.6863 64.2934 53.8209C64.2299 53.9554 64.2215 54.1094 64.27 54.2501L64.36 54.5101C64.3726 54.5483 64.3927 54.5836 64.4191 54.6137C64.4455 54.6438 64.4776 54.6681 64.5133 54.6851C64.5491 54.702 64.5877 54.7112 64.6267 54.712C64.6657 54.7129 64.7043 54.7054 64.74 54.6901C65.7333 54.2901 66.8067 54.0368 67.96 53.9301C68.5733 53.8701 68.6667 54.0634 68.24 54.5101C64.4 58.5101 62.06 63.2401 55.92 63.6001C55.56 63.6201 55.2933 63.7868 55.12 64.1001C55.08 64.1734 55.0533 64.2534 55.04 64.3401C54.9933 64.5734 54.8533 64.6968 54.62 64.7101C52.93 64.8401 51.36 64.3701 49.72 64.9101C47.7667 65.5434 46.4433 66.9901 45.75 69.2501C45.6367 69.6101 45.7667 69.7468 46.14 69.6601C46.24 69.6334 46.2967 69.5801 46.31 69.5001C46.3833 68.9734 46.6933 68.6967 47.24 68.6701C50.1533 68.5368 52.8733 67.3701 55.4 65.1701C55.6467 64.9501 55.9367 64.8501 56.27 64.8701C56.81 64.9034 57.28 65.0967 57.68 65.4501C58.0733 65.8034 58.0067 65.9868 57.48 66.0001L56.55 66.0201C56.1167 66.0267 55.7267 66.1601 55.38 66.4201C52.9467 68.2601 50.0933 69.3934 46.82 69.8201C46.26 69.8934 46.1267 70.1701 46.42 70.6501L46.56 70.8901C46.8 71.2901 46.6933 71.5401 46.24 71.6401C43.9533 72.1601 42.18 71.8034 40.92 70.5701C38.9933 68.6834 38.94 66.8068 40.76 64.9401C41.8133 63.8534 43.6033 63.1501 46.13 62.8301C46.63 62.7701 47.1033 62.6234 47.55 62.3901L48.69 61.7901C49.1033 61.5701 49.3133 61.6968 49.32 62.1701L49.33 63.0001C49.3367 63.4401 49.5467 63.5901 49.96 63.4501C50.1533 63.3834 50.28 63.2568 50.34 63.0701C51.43 59.7701 54.95 57.6901 57.54 55.4201C57.7867 55.2067 58.05 55.1868 58.33 55.3601L58.6 55.5301C58.92 55.7301 59.1 55.6434 59.14 55.2701C59.38 52.9101 60.47 50.4434 62.41 47.8701C63.23 46.7701 63.6833 45.4901 63.77 44.0301C63.7967 43.5501 64.04 43.3734 64.5 43.5001C64.5867 43.5268 64.67 43.5234 64.75 43.4901C65.11 43.3368 65.21 43.0801 65.05 42.7201C64.14 40.6701 63.51 38.6701 64.01 36.4001C64.4433 34.4001 64.3233 32.5901 63.65 30.9701C63.37 30.2968 63.5533 30.1268 64.2 30.4601C64.2933 30.5068 64.38 30.5034 64.46 30.4501C64.7733 30.2568 64.7833 30.0534 64.49 29.8401C62.7633 28.5801 61.4033 26.8568 60.41 24.6701C59.9967 23.7701 59.4467 22.9034 58.76 22.0701C58.0467 21.2034 57.4333 20.3768 56.92 19.5901ZM41.26 6.08008C41.24 6.07458 41.2188 6.07486 41.199 6.08088C41.1791 6.0869 41.1613 6.09842 41.1477 6.11411C41.1341 6.1298 41.1252 6.14901 41.1221 6.16954C41.119 6.19006 41.1217 6.21105 41.13 6.23008C42.0433 7.93008 43.3467 9.10008 45.04 9.74008C45.2228 9.80954 45.4193 9.84006 45.6171 9.82974C45.8149 9.81942 46.0099 9.76848 46.19 9.68009C46.6767 9.44675 46.9333 9.15342 46.96 8.80009C47.0467 7.86009 46.63 7.28675 45.71 7.08008L41.26 6.08008ZM34.96 6.45008C33.68 6.89008 31.93 6.79008 30.83 7.53008C30.6786 7.63105 30.5523 7.76542 30.4609 7.92284C30.3695 8.08026 30.3155 8.25655 30.3029 8.43813C30.2904 8.61972 30.3196 8.80177 30.3885 8.97027C30.4573 9.13877 30.5639 9.28923 30.7 9.41008C31.0267 9.69675 31.3933 9.84675 31.8 9.86008C32.04 9.87342 32.2633 9.82342 32.47 9.71008C33.6567 9.04342 34.6733 8.23342 35.52 7.28008C36.3867 6.29342 36.2 6.01675 34.96 6.45008ZM26.74 9.76009C25.5 10.6534 24.31 11.5401 23.17 12.4201C23.1033 12.4734 23.05 12.5401 23.01 12.6201C22.9367 12.7801 22.98 12.9434 23.14 13.1101C23.1946 13.1646 23.2658 13.1999 23.3432 13.2107C23.4206 13.2215 23.5001 13.2073 23.57 13.1701C26.19 11.7634 28.1 9.90342 29.3 7.59009C29.3288 7.53548 29.3413 7.4737 29.3358 7.41219C29.3303 7.35069 29.3071 7.29209 29.269 7.24346C29.231 7.19483 29.1797 7.15825 29.1213 7.13813C29.0629 7.11802 28.9999 7.11522 28.94 7.13008C26.24 7.72008 22.1 9.53008 21.14 12.3201C21 12.7201 21.1033 12.7968 21.45 12.5501L26.23 9.17008C26.39 9.05675 26.5233 9.08342 26.63 9.25008L26.79 9.51009C26.85 9.60342 26.8333 9.68675 26.74 9.76009ZM50.99 9.21008C52.5033 10.0634 53.98 11.0434 55.42 12.1501C56.6333 13.0834 56.81 12.9168 55.95 11.6501C54.4233 9.42342 51.95 7.92675 48.53 7.16008C47.9367 7.02675 47.7933 7.22342 48.1 7.75008C49.4933 10.1968 51.4433 12.0034 53.95 13.1701C54.0633 13.2301 54.1467 13.2001 54.2 13.0801L54.33 12.7901C54.39 12.6634 54.36 12.5634 54.24 12.4901C52.92 11.6568 51.7633 10.6501 50.77 9.47009C50.35 8.97675 50.4233 8.89008 50.99 9.21008ZM35.1 11.8201C33.96 10.6601 31.06 11.0801 29.51 11.4001C29.09 11.4868 29.02 11.6901 29.3 12.0101C30.78 13.7501 33.12 12.9301 34.98 12.3301C35.0294 12.313 35.0737 12.2837 35.1087 12.2449C35.1438 12.2061 35.1684 12.159 35.1804 12.1081C35.1924 12.0572 35.1913 12.0041 35.1772 11.9538C35.1632 11.9034 35.1366 11.8574 35.1 11.8201ZM42.44 12.3901C44.4 13.1101 46.61 13.5601 48.21 11.8301C48.47 11.5434 48.41 11.3768 48.03 11.3301C46.4233 11.1301 44.9 11.0701 43.46 11.1501C42.98 11.1768 42.5833 11.3734 42.27 11.7401C42.2273 11.7903 42.1973 11.8501 42.1827 11.9144C42.168 11.9787 42.1691 12.0456 42.1858 12.1094C42.2024 12.1731 42.2343 12.232 42.2785 12.2808C42.3228 12.3297 42.3782 12.3672 42.44 12.3901ZM16.67 15.8201C15.6033 17.8201 14.3267 19.8568 12.84 21.9301C12.8133 21.9634 12.8167 21.9934 12.85 22.0201L13.22 22.3501C13.34 22.4634 13.4567 22.4568 13.57 22.3301C15.65 20.0901 17.0167 17.6768 17.67 15.0901C17.7068 14.9386 17.6973 14.7796 17.6429 14.6335C17.5884 14.4874 17.4914 14.361 17.3644 14.2706C17.2374 14.1802 17.0862 14.1299 16.9303 14.1263C16.7745 14.1226 16.6211 14.1657 16.49 14.2501C13.57 16.1768 11.8367 18.6934 11.29 21.8001C10.9367 23.8201 11.1867 23.8968 12.04 22.0301C13.12 19.6568 14.3533 17.5701 15.74 15.7701C15.8333 15.6568 15.9567 15.5768 16.11 15.5301C16.2233 15.4968 16.34 15.4801 16.46 15.4801C16.5006 15.4787 16.5408 15.488 16.5766 15.5071C16.6124 15.5263 16.6425 15.5545 16.6638 15.5891C16.6851 15.6236 16.6969 15.6632 16.698 15.7037C16.6991 15.7443 16.6894 15.7845 16.67 15.8201ZM60.91 15.7001C60.9275 15.6605 60.9546 15.6259 60.9888 15.5995C61.023 15.573 61.0633 15.5555 61.106 15.5486C61.1487 15.5416 61.1925 15.5454 61.2334 15.5597C61.2742 15.5739 61.3109 15.5981 61.34 15.6301C63.26 17.7234 64.6267 20.1201 65.44 22.8201C65.5133 23.0468 65.6567 23.1134 65.87 23.0201L66.16 22.8901C66.2733 22.8434 66.32 22.7601 66.3 22.6401C65.6 19.1068 63.89 16.4168 61.17 14.5701C59.8633 13.6901 59.4067 14.0134 59.8 15.5401C60.3067 17.5001 61.2067 19.2501 62.5 20.7901C64.4333 23.1034 64.71 22.9168 63.33 20.2301C62.9167 19.4301 62.1067 18.3068 60.9 16.8601C60.8038 16.7421 60.7417 16.6004 60.7205 16.4505C60.6994 16.3005 60.7199 16.1482 60.78 16.0101L60.91 15.7001ZM14.45 25.2701C14.23 25.6968 13.73 26.3668 12.95 27.2801C12.8367 27.4134 12.8433 27.5434 12.97 27.6701L13.19 27.8901C13.2967 27.9968 13.41 28.0034 13.53 27.9101C15.67 26.1601 15.88 24.0301 17.3 21.8101C17.5667 21.3968 17.4833 21.3001 17.05 21.5201C13.79 23.2001 11.6167 25.5601 10.53 28.6001C10.51 28.6601 10.53 28.7034 10.59 28.7301L10.82 28.8301C11.0267 28.9168 11.18 28.8601 11.28 28.6601C12.0733 27.0668 12.9367 25.7968 13.87 24.8501C14.9567 23.7568 15.15 23.8968 14.45 25.2701ZM62.88 24.4501C64.1667 25.5034 65.1867 26.9401 65.94 28.7601C65.98 28.8534 66.0467 28.8768 66.14 28.8301L66.44 28.6901C66.6467 28.5968 66.71 28.4434 66.63 28.2301C65.49 25.2834 63.3867 23.0668 60.32 21.5801C59.96 21.4068 59.87 21.4968 60.05 21.8501L62.93 27.4601C63.0111 27.6236 63.147 27.7537 63.3147 27.8285C63.4824 27.9032 63.6716 27.9179 63.85 27.8701C64.41 27.7101 64.5567 27.4734 64.29 27.1601C63.6167 26.3534 63.05 25.5301 62.59 24.6901C62.2633 24.1034 62.36 24.0234 62.88 24.4501ZM69.56 36.4801C69.6296 36.539 69.7122 36.5806 69.801 36.6016C69.8897 36.6226 69.9822 36.6224 70.0708 36.601C70.1595 36.5795 70.2418 36.5375 70.3112 36.4783C70.3805 36.419 70.435 36.3443 70.47 36.2601C71.63 33.4734 71.0767 30.6834 68.81 27.8901C68.47 27.4634 68.2733 27.5234 68.22 28.0701C67.98 30.6901 67.26 34.5501 69.56 36.4801ZM10.52 36.8001C10.7067 37.9001 10.82 39.1367 10.86 40.5101C10.88 41.4301 11.17 41.5267 11.73 40.8001C12.13 40.2868 12.3067 39.6934 12.26 39.0201C12.14 37.0734 12.1233 35.1234 12.21 33.1701C12.2433 32.4434 12.0467 32.3734 11.62 32.9601C9.23334 36.2601 8.59001 39.6901 9.69001 43.2501C9.71001 43.3301 9.76334 43.3734 9.85001 43.3801L10.19 43.4101C10.37 43.4301 10.44 43.3501 10.4 43.1701C9.94001 41.0834 9.90001 38.9601 10.28 36.8001C10.36 36.3534 10.44 36.3534 10.52 36.8001ZM67.01 36.7901L67.23 43.1001C67.2367 43.3134 67.3367 43.3801 67.53 43.3001C67.67 43.2467 67.7633 43.1468 67.81 43.0001C68.8433 39.4734 68.1067 36.0834 65.6 32.8301C65.2667 32.3968 65.0967 32.4534 65.09 33.0001L65.07 40.2201C65.07 40.6134 65.2667 40.8168 65.66 40.8301L66.02 40.8401C66.26 40.8468 66.3833 40.7301 66.39 40.4901C66.45 39.1501 65.83 37.9301 66.51 36.6801C66.8167 36.1001 66.9833 36.1368 67.01 36.7901ZM8.00001 44.7801C8.2658 44.8905 8.499 45.0669 8.6775 45.2926C8.85601 45.5184 8.9739 45.786 9.02001 46.0701C9.16667 46.9634 9.59667 47.7001 10.31 48.2801C10.7767 48.6667 10.9333 48.5667 10.78 47.9801C10.1867 45.7801 9.00001 43.8368 7.22001 42.1501C6.81334 41.7634 6.60001 41.8501 6.58001 42.4101C6.53334 43.5768 7.00668 44.3667 8.00001 44.7801ZM69.7 44.9401C68.8733 47.3467 67.5167 49.5401 65.63 51.5201C65.5633 51.5934 65.5667 51.6601 65.64 51.7201L65.85 51.9001C65.9116 51.9541 65.9897 51.9855 66.0715 51.9892C66.1533 51.9928 66.2339 51.9684 66.3 51.9201C69.1467 49.7934 70.6267 46.7801 70.74 42.8801C70.7733 41.8668 70.4433 41.7334 69.75 42.4801C68.29 44.0534 67.1833 45.9067 66.43 48.0401C66.35 48.2534 66.42 48.3934 66.64 48.4601L67.12 48.6001C67.16 48.6068 67.1867 48.5934 67.2 48.5601C67.8467 46.9468 68.55 45.6701 69.31 44.7301C69.8433 44.0701 69.9733 44.1401 69.7 44.9401ZM7.52001 44.7901L7.27001 44.8601C7.04334 44.9268 6.94667 45.0768 6.98001 45.3101C7.40001 48.2301 8.87668 50.5368 11.41 52.2301C11.4433 52.2568 11.4733 52.2534 11.5 52.2201L11.79 51.9101C11.8364 51.8628 11.8614 51.7984 11.8595 51.7309C11.8576 51.6634 11.829 51.5984 11.78 51.5501C9.84667 49.6701 8.50334 47.4567 7.75001 44.9101C7.73666 44.8648 7.70508 44.8269 7.66206 44.8044C7.61904 44.782 7.56803 44.7768 7.52001 44.7901ZM14.66 50.5901C14.7067 50.5834 14.7333 50.6001 14.74 50.6401C14.9267 51.8201 15.46 52.7834 16.34 53.5301C16.7067 53.8501 16.89 53.7668 16.89 53.2801C16.8833 52.7201 16.7333 52.1968 16.44 51.7101C15.3533 49.9101 14.24 48.0667 13.1 46.1801C12.8733 45.8001 12.7267 45.8301 12.66 46.2701C12.06 50.3234 13.2533 53.6234 16.24 56.1701C16.2733 56.1968 16.3033 56.1968 16.33 56.1701L16.58 55.9301C16.7533 55.7568 16.7567 55.5801 16.59 55.4001C15.3367 54.0868 14.53 52.6201 14.17 51.0001C14.1233 50.8001 14.2033 50.6801 14.41 50.6401L14.66 50.5901ZM63.13 51.4001C62.7767 52.7068 62.08 53.9101 61.04 55.0101C60.28 55.8167 60.42 56.0301 61.46 55.6501C64.23 54.6301 64.95 48.7201 64.68 46.3401C64.64 45.9801 64.5133 45.9468 64.3 46.2401C62.7867 48.3468 61.48 50.6034 60.38 53.0101C60.0133 53.8167 60.1967 53.9734 60.93 53.4801C61.7633 52.9201 62.28 52.1301 62.48 51.1101C62.4933 51.0368 62.5367 51.0034 62.61 51.0101L62.88 51.0401C63.1133 51.0534 63.1967 51.1734 63.13 51.4001ZM63.17 57.3401C61.77 59.1268 59.91 60.5567 57.59 61.6301C57.4767 61.6834 57.4467 61.7667 57.5 61.8801L57.63 62.1301C57.73 62.3234 57.88 62.3867 58.08 62.3201C61.2333 61.2134 63.77 59.0601 65.69 55.8601C65.7231 55.8086 65.7397 55.7487 65.7378 55.6877C65.7359 55.6268 65.7155 55.5675 65.6793 55.5174C65.643 55.4673 65.5924 55.4284 65.5339 55.4058C65.4753 55.3832 65.4114 55.3777 65.35 55.3901C62.5233 55.9834 60.3367 57.2868 58.79 59.3001C58.67 59.4601 58.69 59.6001 58.85 59.7201L59.23 60.0201C59.2567 60.0401 59.2867 60.0368 59.32 60.0101C60.5067 58.8234 61.7 57.8368 62.9 57.0501C63.5933 56.5901 63.6833 56.6868 63.17 57.3401ZM24.71 62.2501C24.8367 62.2701 24.94 62.2201 25.02 62.1001C25.2933 61.6867 25.2467 61.3134 24.88 60.9801L20.23 56.8401C19.6967 56.3668 19.5 56.4767 19.64 57.1701C20.2333 60.0834 21.8433 62.2934 24.47 63.8001C24.97 64.0868 25.07 63.9834 24.77 63.4901C24.6033 63.2234 24.4667 62.9568 24.36 62.6901C24.2133 62.3368 24.33 62.1901 24.71 62.2501ZM52.74 63.0301C52.6933 63.1101 52.6567 63.1968 52.63 63.2901C52.43 63.8701 52.59 63.9967 53.11 63.6701C55.3767 62.2634 56.8967 60.1434 57.67 57.3101C57.83 56.7368 57.6667 56.6268 57.18 56.9801C55.3333 58.3068 53.6767 59.7668 52.21 61.3601C51.9833 61.6068 52.0067 61.8234 52.28 62.0101L52.55 62.1901C52.8633 62.4101 52.9267 62.6901 52.74 63.0301ZM34.86 66.3201C35.4533 66.3734 35.67 66.0768 35.51 65.4301C35.479 65.3109 35.4188 65.2016 35.3348 65.1124C35.2509 65.0232 35.146 64.957 35.03 64.9201L29.98 63.2701C29.3667 63.0701 29.2167 63.2534 29.53 63.8201C30.5167 65.5934 32.1433 66.8701 34.41 67.6501C34.93 67.8301 35.05 67.6834 34.77 67.2101C34.6633 67.0301 34.5967 66.8334 34.57 66.6201C34.5654 66.5804 34.5697 66.5403 34.5825 66.5025C34.5954 66.4647 34.6164 66.4302 34.6441 66.4016C34.6718 66.3729 34.7056 66.3507 34.7429 66.3366C34.7802 66.3225 34.8202 66.3169 34.86 66.3201ZM42.72 66.9501L42.65 67.2001C42.5367 67.6401 42.6933 67.7834 43.12 67.6301C44.9733 66.9434 46.4 65.8701 47.4 64.4101C48.2 63.2434 47.9533 62.9434 46.66 63.5101C45.04 64.2301 42.72 64.0601 41.67 65.6801C41.639 65.7273 41.6192 65.781 41.6122 65.837C41.6052 65.8929 41.6112 65.9495 41.6297 66.002C41.6482 66.0546 41.6787 66.1018 41.7187 66.1396C41.7587 66.1775 41.8071 66.2051 41.86 66.2201C42.16 66.3068 42.42 66.4567 42.64 66.6701C42.72 66.7501 42.7467 66.8434 42.72 66.9501ZM35.43 68.0401L32.61 70.2401C32.5797 70.2654 32.5606 70.3017 32.5569 70.341C32.5531 70.3803 32.565 70.4195 32.59 70.4501L32.64 70.5201C32.7482 70.6593 32.8928 70.7679 33.0655 70.8397C33.2383 70.9115 33.4357 70.9452 33.6466 70.9387C33.8575 70.9322 34.0776 70.8857 34.2944 70.8018C34.5112 70.718 34.7204 70.5984 34.91 70.4501L35.08 70.3101C35.4619 70.0119 35.7417 69.6149 35.8579 69.2062C35.9741 68.7975 35.9174 68.4105 35.7 68.1301L35.64 68.0601C35.6147 68.0298 35.5784 68.0107 35.5391 68.0069C35.4998 68.0032 35.4606 68.0151 35.43 68.0401ZM44.4399 70.8398C44.5599 70.6746 44.5054 70.3929 44.2884 70.0567C44.0714 69.7206 43.7096 69.3574 43.2826 69.0472C42.8556 68.737 42.3985 68.5051 42.0117 68.4026C41.6249 68.3 41.3402 68.3352 41.2201 68.5004C41.1001 68.6656 41.1546 68.9473 41.3716 69.2834C41.5886 69.6196 41.9504 69.9828 42.3774 70.293C42.8044 70.6032 43.2615 70.8351 43.6483 70.9376C44.0351 71.0402 44.3198 71.005 44.4399 70.8398Z" fill="#247789"/>
<path d="M41.2602 6.08011L45.7102 7.08011C46.6302 7.28677 47.0469 7.86011 46.9602 8.80011C46.9336 9.15344 46.6769 9.44677 46.1902 9.68011C46.0102 9.7685 45.8152 9.81944 45.6173 9.82976C45.4195 9.84008 45.2231 9.80957 45.0402 9.74011C43.3469 9.10011 42.0436 7.93011 41.1302 6.23011C41.122 6.21107 41.1192 6.19008 41.1224 6.16956C41.1255 6.14904 41.1344 6.12982 41.148 6.11413C41.1616 6.09844 41.1793 6.08692 41.1992 6.0809C41.2191 6.07488 41.2402 6.0746 41.2602 6.08011Z" fill="#EDFDFD"/>
<path d="M30.8307 7.52982C31.9307 6.78982 33.6807 6.88982 34.9607 6.44982C36.2007 6.01649 36.3874 6.29315 35.5207 7.27982C34.674 8.23316 33.6574 9.04316 32.4707 9.70982C32.264 9.82316 32.0407 9.87315 31.8007 9.85982C31.394 9.84649 31.0274 9.69649 30.7007 9.40982C30.5646 9.28897 30.458 9.13851 30.3892 8.97001C30.3203 8.8015 30.2911 8.61946 30.3036 8.43787C30.3162 8.25628 30.3702 8.08 30.4616 7.92258C30.553 7.76515 30.6792 7.63079 30.8307 7.52982Z" fill="#EDFDFD"/>
<path d="M26.7405 9.76001C26.8338 9.68668 26.8505 9.60335 26.7905 9.51001L26.6305 9.25001C26.5238 9.08335 26.3905 9.05668 26.2305 9.17001L21.4505 12.55C21.1038 12.7967 21.0005 12.72 21.1405 12.32C22.1005 9.53001 26.2405 7.72001 28.9405 7.13001C29.0004 7.11515 29.0634 7.11795 29.1218 7.13806C29.1801 7.15818 29.2315 7.19476 29.2695 7.24339C29.3076 7.29201 29.3307 7.35062 29.3362 7.41212C29.3417 7.47362 29.3293 7.53541 29.3005 7.59001C28.1005 9.90335 26.1905 11.7633 23.5705 13.17C23.5006 13.2072 23.4211 13.2214 23.3437 13.2106C23.2662 13.1998 23.195 13.1646 23.1405 13.11C22.9805 12.9433 22.9372 12.78 23.0105 12.62C23.0505 12.54 23.1038 12.4733 23.1705 12.42C24.3105 11.54 25.5005 10.6533 26.7405 9.76001Z" fill="#EDFDFD"/>
<path d="M50.7701 9.47003C51.7634 10.65 52.9201 11.6567 54.2401 12.49C54.3601 12.5634 54.3901 12.6634 54.3301 12.79L54.2001 13.08C54.1468 13.2 54.0634 13.23 53.9501 13.17C51.4434 12.0034 49.4934 10.1967 48.1001 7.75003C47.7934 7.22337 47.9368 7.0267 48.5301 7.16003C51.9501 7.9267 54.4234 9.42337 55.9501 11.65C56.8101 12.9167 56.6334 13.0834 55.4201 12.15C53.9801 11.0434 52.5034 10.0634 50.9901 9.21003C50.4234 8.89003 50.3501 8.9767 50.7701 9.47003Z" fill="#EDFDFD"/>
<path d="M29.5098 11.4002C31.0598 11.0802 33.9598 10.6602 35.0998 11.8202C35.1364 11.8575 35.163 11.9035 35.1771 11.9539C35.1911 12.0042 35.1922 12.0573 35.1802 12.1082C35.1683 12.1591 35.1436 12.2062 35.1086 12.245C35.0735 12.2838 35.0292 12.3131 34.9798 12.3302C33.1198 12.9302 30.7798 13.7502 29.2998 12.0102C29.0198 11.6902 29.0898 11.4868 29.5098 11.4002Z" fill="#EDFDFD"/>
<path d="M48.2104 11.83C46.6104 13.56 44.4004 13.11 42.4404 12.39C42.3786 12.3671 42.3232 12.3296 42.279 12.2808C42.2347 12.2319 42.2029 12.1731 42.1862 12.1093C42.1695 12.0455 42.1685 11.9786 42.1831 11.9143C42.1978 11.85 42.2277 11.7902 42.2704 11.74C42.5838 11.3733 42.9804 11.1767 43.4604 11.15C44.9004 11.07 46.4238 11.13 48.0304 11.33C48.4104 11.3767 48.4704 11.5433 48.2104 11.83Z" fill="#EDFDFD"/>
<path d="M16.46 15.48C16.34 15.48 16.2233 15.4967 16.11 15.53C15.9566 15.5767 15.8333 15.6567 15.74 15.77C14.3533 17.57 13.12 19.6567 12.04 22.03C11.1866 23.8967 10.9366 23.82 11.29 21.8C11.8366 18.6933 13.57 16.1767 16.49 14.25C16.6211 14.1657 16.7744 14.1225 16.9303 14.1262C17.0861 14.1299 17.2373 14.1801 17.3643 14.2705C17.4913 14.3609 17.5883 14.4873 17.6428 14.6334C17.6973 14.7795 17.7067 14.9385 17.67 15.09C17.0166 17.6767 15.65 20.09 13.57 22.33C13.4566 22.4567 13.34 22.4633 13.22 22.35L12.85 22.02C12.8166 21.9933 12.8133 21.9633 12.84 21.93C14.3266 19.8567 15.6033 17.82 16.67 15.82C16.6894 15.7844 16.6991 15.7442 16.698 15.7037C16.6969 15.6631 16.6851 15.6235 16.6637 15.589C16.6424 15.5545 16.6123 15.5262 16.5765 15.5071C16.5407 15.4879 16.5005 15.4786 16.46 15.48Z" fill="#EDFDFD"/>
<path d="M60.9106 15.7001L60.7806 16.0101C60.7205 16.1482 60.6999 16.3005 60.7211 16.4505C60.7423 16.6004 60.8044 16.7421 60.9006 16.8601C62.1072 18.3067 62.9172 19.4301 63.3306 20.2301C64.7106 22.9167 64.4339 23.1034 62.5006 20.7901C61.2072 19.2501 60.3072 17.5001 59.8006 15.5401C59.4072 14.0134 59.8639 13.6901 61.1706 14.5701C63.8906 16.4167 65.6006 19.1067 66.3006 22.6401C66.3206 22.7601 66.2739 22.8434 66.1606 22.8901L65.8706 23.0201C65.6572 23.1134 65.5139 23.0467 65.4406 22.8201C64.6272 20.1201 63.2606 17.7234 61.3406 15.6301C61.3114 15.5981 61.2748 15.5739 61.2339 15.5596C61.1931 15.5454 61.1493 15.5416 61.1066 15.5485C61.0639 15.5555 61.0236 15.573 60.9894 15.5995C60.9552 15.6259 60.9281 15.6605 60.9106 15.7001Z" fill="#EDFDFD"/>
<path d="M20.6106 19.2599C20.3172 19.3799 20.2106 19.5233 20.2906 19.6899C19.4572 19.2433 19.3472 18.5033 19.9606 17.4699C20.1472 17.1566 20.4172 16.9466 20.7706 16.8399C21.5306 16.6066 22.1772 16.2499 22.7106 15.7699C23.1639 15.3633 23.1039 15.2599 22.5306 15.4599C21.1239 15.9666 19.8339 16.7566 18.6606 17.8299C18.5606 17.9233 18.4606 17.9233 18.3606 17.8299L18.0906 17.5899C17.9172 17.4299 17.9139 17.2633 18.0806 17.0899C20.1739 14.9633 22.6339 14.1699 25.4606 14.7099C25.513 14.7213 25.5617 14.7467 25.601 14.7832C25.6404 14.8198 25.669 14.8661 25.6835 14.917C25.698 14.9678 25.698 15.0212 25.6833 15.0712C25.6687 15.1212 25.64 15.1658 25.6006 15.1999C24.0939 16.5266 22.3739 17.5399 20.4406 18.2399C20.2606 18.2999 20.1639 18.4233 20.1506 18.6099C20.1372 18.8033 20.2906 19.0199 20.6106 19.2599Z" fill="#EDFDFD"/>
<path d="M56.9204 19.5901C57.1937 19.4367 57.467 19.2867 57.7404 19.1401L51.9304 15.1401C51.4837 14.8334 51.527 14.6467 52.0604 14.5801C54.8404 14.2467 57.1404 14.9734 58.9604 16.7601C59.8404 17.6267 59.677 17.9234 58.4704 17.6501C58.3837 17.6301 58.3037 17.5934 58.2304 17.5401C57.7637 17.2001 57.5837 17.3267 57.6904 17.9201C57.8104 18.5867 57.5537 19.1434 56.9204 19.5901Z" fill="#EDFDFD"/>
<path d="M14.45 25.2699C15.15 23.8966 14.9566 23.7566 13.87 24.8499C12.9366 25.7966 12.0733 27.0666 11.28 28.6599C11.18 28.8599 11.0266 28.9166 10.82 28.8299L10.59 28.7299C10.53 28.7032 10.51 28.6599 10.53 28.5999C11.6166 25.5599 13.79 23.1999 17.05 21.5199C17.4833 21.2999 17.5666 21.3966 17.3 21.8099C15.88 24.0299 15.67 26.1599 13.53 27.9099C13.41 28.0032 13.2966 27.9966 13.19 27.8899L12.97 27.6699C12.8433 27.5432 12.8366 27.4132 12.95 27.2799C13.73 26.3666 14.23 25.6966 14.45 25.2699Z" fill="#EDFDFD"/>
<path d="M62.59 24.6902C63.05 25.5302 63.6166 26.3535 64.29 27.1602C64.5566 27.4735 64.41 27.7102 63.85 27.8702C63.6715 27.918 63.4824 27.9033 63.3147 27.8286C63.147 27.7538 63.011 27.6237 62.93 27.4602L60.05 21.8502C59.87 21.4969 59.96 21.4069 60.32 21.5802C63.3866 23.0669 65.49 25.2835 66.63 28.2302C66.71 28.4435 66.6466 28.5969 66.44 28.6902L66.14 28.8302C66.0466 28.8769 65.98 28.8535 65.94 28.7602C65.1866 26.9402 64.1666 25.5035 62.88 24.4502C62.36 24.0235 62.2633 24.1035 62.59 24.6902Z" fill="#EDFDFD"/>
<path d="M24.7202 50.57C20.5468 48.9367 18.4935 45.9233 18.5602 41.53C18.6268 36.5967 18.6268 31.9033 18.5602 27.45C18.5535 27.15 18.7002 27 19.0002 27H23.0802C23.3868 27 23.5402 27.1533 23.5402 27.46C23.5402 32.06 23.5368 36.53 23.5302 40.87C23.5235 44.5567 25.3702 46.4233 29.0702 46.47C33.0702 46.5167 35.0502 44.57 35.0102 40.63C34.9702 35.9767 34.9702 31.53 35.0102 27.29C35.0168 27.0967 35.1168 27 35.3102 27L39.5102 27.01C39.7235 27.01 39.8335 27.1167 39.8402 27.33C39.8668 33.17 39.8468 38.4633 39.7802 43.21C39.7468 45.27 38.8002 47.0733 36.9402 48.62C33.2668 51.6667 29.1935 52.3167 24.7202 50.57Z" fill="#223338"/>
<path d="M53.1306 42.6998C52.8739 42.3418 52.549 42.0382 52.1749 41.8065C51.8007 41.5748 51.3847 41.4196 50.9506 41.3498C47.5006 40.7798 41.9006 39.9698 41.3906 35.4898C41.044 32.5165 41.934 30.3498 44.0606 28.9898C48.674 26.0298 53.364 26.2565 58.1306 29.6698C58.544 29.9632 58.5706 30.2898 58.2106 30.6498L55.8906 32.9698C55.584 33.2765 55.2606 33.2932 54.9206 33.0198C53.194 31.5932 51.054 31.2165 48.5006 31.8898C47.2006 32.2298 46.4206 33.4498 46.7306 34.7998C46.8061 35.1062 46.9649 35.3855 47.1892 35.6062C47.4135 35.827 47.6945 35.9806 48.0006 36.0498C50.0673 36.5165 52.074 37.0332 54.0206 37.5998C59.6306 39.2298 60.5806 45.9398 56.1606 49.3698C51.5706 52.9498 44.5406 51.6598 40.5806 48.1198C40.4006 47.9532 40.394 47.7865 40.5606 47.6198L43.2606 44.9298C43.434 44.7565 43.614 44.7498 43.8006 44.9098C45.7073 46.5432 48.1773 47.1232 51.2106 46.6498C53.1406 46.3598 54.3506 44.3998 53.1306 42.6998Z" fill="#223338"/>
<path d="M69.5605 36.4799C67.2605 34.5499 67.9805 30.6899 68.2205 28.0699C68.2738 27.5233 68.4705 27.4633 68.8105 27.8899C71.0771 30.6833 71.6305 33.4733 70.4705 36.2599C70.4354 36.3441 70.381 36.4189 70.3116 36.4781C70.2423 36.5373 70.1599 36.5794 70.0713 36.6008C69.9826 36.6223 69.8902 36.6225 69.8014 36.6015C69.7126 36.5805 69.6301 36.5388 69.5605 36.4799Z" fill="#EDFDFD"/>
<path d="M66.5103 36.6799C65.8303 37.9299 66.4503 39.1499 66.3903 40.4899C66.3836 40.7299 66.2603 40.8466 66.0203 40.8399L65.6603 40.8299C65.267 40.8166 65.0703 40.6132 65.0703 40.2199L65.0903 32.9999C65.097 32.4532 65.267 32.3966 65.6003 32.8299C68.107 36.0832 68.8436 39.4732 67.8103 42.9999C67.7636 43.1466 67.6703 43.2466 67.5303 43.2999C67.337 43.3799 67.237 43.3132 67.2303 43.0999L67.0103 36.7899C66.9836 36.1366 66.817 36.0999 66.5103 36.6799Z" fill="#EDFDFD"/>
<path d="M69.7006 44.94C69.974 44.14 69.844 44.07 69.3106 44.73C68.5506 45.67 67.8473 46.9467 67.2006 48.56C67.1873 48.5934 67.1606 48.6067 67.1206 48.6L66.6406 48.46C66.4206 48.3934 66.3506 48.2534 66.4306 48.04C67.184 45.9067 68.2906 44.0534 69.7506 42.48C70.444 41.7334 70.774 41.8667 70.7406 42.88C70.6273 46.78 69.1473 49.7934 66.3006 51.92C66.2345 51.9684 66.1539 51.9927 66.0721 51.9891C65.9903 51.9855 65.9122 51.9541 65.8506 51.9L65.6406 51.72C65.5673 51.66 65.564 51.5934 65.6306 51.52C67.5173 49.54 68.874 47.3467 69.7006 44.94Z" fill="#EDFDFD"/>
<path d="M14.1703 51.0002C14.5303 52.6202 15.337 54.0868 16.5903 55.4002C16.757 55.5802 16.7537 55.7568 16.5803 55.9302L16.3303 56.1702C16.3037 56.1968 16.2737 56.1968 16.2403 56.1702C13.2537 53.6235 12.0603 50.3235 12.6603 46.2702C12.727 45.8302 12.8737 45.8002 13.1003 46.1802C14.2403 48.0668 15.3537 49.9102 16.4403 51.7102C16.7337 52.1968 16.8837 52.7202 16.8903 53.2802C16.8903 53.7668 16.707 53.8502 16.3403 53.5302C15.4603 52.7835 14.927 51.8202 14.7403 50.6402C14.7337 50.6002 14.707 50.5835 14.6603 50.5902L14.4103 50.6402C14.2037 50.6802 14.1237 50.8002 14.1703 51.0002Z" fill="#EDFDFD"/>
<path d="M63.1306 51.4C63.1973 51.1734 63.1139 51.0534 62.8806 51.04L62.6106 51.01C62.5373 51.0034 62.4939 51.0367 62.4806 51.11C62.2806 52.13 61.7639 52.92 60.9306 53.48C60.1973 53.9734 60.0139 53.8167 60.3806 53.01C61.4806 50.6034 62.7873 48.3467 64.3006 46.24C64.5139 45.9467 64.6406 45.98 64.6806 46.34C64.9506 48.72 64.2306 54.63 61.4606 55.65C60.4206 56.03 60.2806 55.8167 61.0406 55.01C62.0806 53.91 62.7773 52.7067 63.1306 51.4Z" fill="#EDFDFD"/>
<path d="M13.0507 54.1802L13.1907 54.6302C13.2974 54.9768 13.1907 55.0668 12.8707 54.9002C12.6507 54.7868 12.4507 54.8035 12.2707 54.9502C11.9107 55.2235 11.9507 55.4035 12.3907 55.4902C14.9374 55.9902 16.9941 57.2568 18.5607 59.2902C18.5804 59.3142 18.5951 59.342 18.6038 59.3718C18.6124 59.4016 18.615 59.4329 18.6112 59.4637C18.6075 59.4946 18.5976 59.5243 18.582 59.5512C18.5665 59.5781 18.5456 59.6016 18.5207 59.6202L18.2707 59.8102C18.2109 59.8554 18.1371 59.8782 18.0621 59.8746C17.9872 59.8709 17.9159 59.841 17.8607 59.7902C16.8541 58.8568 15.7841 57.9968 14.6507 57.2102C14.1374 56.8568 14.0307 56.9535 14.3307 57.5002C15.3907 59.4302 18.2207 60.5702 19.8907 61.8802C20.4574 62.3202 20.3941 62.4535 19.7007 62.2802C15.5274 61.2535 12.7974 58.6802 11.5107 54.5602C12.2507 54.6335 12.6741 54.6768 12.7807 54.6902C12.9341 54.7102 13.0241 54.5402 13.0507 54.1802Z" fill="#EDFDFD"/>
<path d="M62.9002 57.0498C61.7002 57.8364 60.5069 58.8231 59.3202 60.0098C59.2869 60.0364 59.2569 60.0398 59.2302 60.0198L58.8502 59.7198C58.6902 59.5998 58.6702 59.4598 58.7902 59.2998C60.3369 57.2864 62.5235 55.9831 65.3502 55.3898C65.4116 55.3774 65.4755 55.3829 65.5341 55.4055C65.5926 55.4281 65.6432 55.467 65.6795 55.5171C65.7158 55.5672 65.7361 55.6265 65.738 55.6874C65.7399 55.7483 65.7233 55.8083 65.6902 55.8598C63.7702 59.0598 61.2335 61.2131 58.0802 62.3198C57.8802 62.3864 57.7302 62.3231 57.6302 62.1298L57.5002 61.8798C57.4469 61.7664 57.4769 61.6831 57.5902 61.6298C59.9102 60.5564 61.7702 59.1264 63.1702 57.3398C63.6835 56.6864 63.5935 56.5898 62.9002 57.0498Z" fill="#EDFDFD"/>
<path d="M24.3603 62.6898C24.467 62.9565 24.6037 63.2231 24.7703 63.4898C25.0703 63.9831 24.9703 64.0865 24.4703 63.7998C21.8437 62.2932 20.2337 60.0831 19.6403 57.1698C19.5003 56.4765 19.697 56.3665 20.2303 56.8398L24.8803 60.9798C25.247 61.3132 25.2937 61.6865 25.0203 62.0998C24.9403 62.2198 24.837 62.2698 24.7103 62.2498C24.3303 62.1898 24.2137 62.3365 24.3603 62.6898ZM23.6503 61.9398C24.097 62.1932 24.1903 62.0998 23.9303 61.6598C23.617 61.1265 23.197 60.7165 22.6703 60.4298C22.2037 60.1765 22.1103 60.2731 22.3903 60.7198C22.7103 61.2398 23.1303 61.6465 23.6503 61.9398Z" fill="#EDFDFD"/>
<path d="M52.5498 62.1899L52.2798 62.0099C52.0065 61.8233 51.9831 61.6066 52.2098 61.3599C53.6765 59.7666 55.3331 58.3066 57.1798 56.9799C57.6665 56.6266 57.8298 56.7366 57.6698 57.3099C56.8965 60.1433 55.3765 62.2632 53.1098 63.6699C52.5898 63.9966 52.4298 63.8699 52.6298 63.2899C52.6565 63.1966 52.6931 63.1099 52.7398 63.0299C52.9265 62.6899 52.8631 62.4099 52.5498 62.1899ZM55.1698 59.8899C54.2965 60.4566 53.6198 61.0866 53.1398 61.7799C52.7665 62.3133 52.8598 62.4166 53.4198 62.0899C54.1731 61.6366 54.8465 60.9966 55.4398 60.1699C55.8398 59.6032 55.7498 59.5099 55.1698 59.8899Z" fill="#EDFDFD"/>
<path d="M55.44 60.1699C54.8467 60.9966 54.1733 61.6366 53.42 62.0899C52.86 62.4166 52.7667 62.3133 53.14 61.7799C53.62 61.0866 54.2967 60.4566 55.17 59.8899C55.75 59.5099 55.84 59.6033 55.44 60.1699Z" fill="#247789"/>
<path d="M23.6499 61.94C23.1299 61.6467 22.7099 61.24 22.3899 60.72C22.1099 60.2733 22.2033 60.1767 22.6699 60.43C23.1966 60.7167 23.6166 61.1267 23.9299 61.66C24.1899 62.1 24.0966 62.1933 23.6499 61.94Z" fill="#247789"/>
<path d="M34.57 66.6202C34.5967 66.8335 34.6633 67.0302 34.77 67.2102C35.05 67.6835 34.93 67.8302 34.41 67.6502C32.1433 66.8702 30.5167 65.5935 29.53 63.8202C29.2167 63.2535 29.3667 63.0702 29.98 63.2702L35.03 64.9202C35.146 64.9571 35.2509 65.0233 35.3348 65.1125C35.4188 65.2016 35.479 65.3109 35.51 65.4302C35.67 66.0768 35.4533 66.3735 34.86 66.3202C34.8202 66.3169 34.7803 66.3226 34.7429 66.3367C34.7056 66.3507 34.6718 66.3729 34.6441 66.4016C34.6164 66.4303 34.5954 66.4648 34.5825 66.5026C34.5697 66.5404 34.5655 66.5805 34.57 66.6202Z" fill="#EDFDFD"/>
<path d="M42.64 66.6698C42.42 66.4565 42.16 66.3065 41.86 66.2198C41.8071 66.2048 41.7587 66.1772 41.7187 66.1394C41.6787 66.1015 41.6482 66.0543 41.6297 66.0018C41.6112 65.9492 41.6052 65.8926 41.6122 65.8367C41.6192 65.7808 41.639 65.727 41.67 65.6798C42.72 64.0598 45.04 64.2298 46.66 63.5098C47.9534 62.9432 48.2 63.2432 47.4 64.4098C46.4 65.8698 44.9734 66.9431 43.12 67.6298C42.6934 67.7831 42.5367 67.6398 42.65 67.1998L42.72 66.9498C42.7467 66.8431 42.72 66.7498 42.64 66.6698Z" fill="#EDFDFD"/>
<path d="M26.2105 64.6499C27.7105 64.8166 28.8638 65.2832 29.6705 66.0499C30.2838 66.6366 30.4905 67.0732 30.2905 67.3599C29.0838 67.0332 27.9338 66.7832 26.8405 66.6099C25.9605 66.4699 25.9138 66.1899 26.7005 65.7699C26.9472 65.6366 26.7838 65.2632 26.2105 64.6499Z" fill="#EDFDFD"/>
<path d="M49.3901 66.02C49.8168 65.76 50.2268 65.7533 50.6201 66C51.0335 66.26 51.0001 66.4366 50.5201 66.53L48.1501 66.99C47.7034 67.0766 47.6201 66.9433 47.9001 66.59C48.1534 66.2766 48.4768 66.13 48.8701 66.15C49.0528 66.1565 49.233 66.1114 49.3901 66.02Z" fill="#EDFDFD"/>
<path d="M35.4305 68.0402C35.4611 68.0152 35.5003 68.0033 35.5396 68.007C35.5789 68.0108 35.6151 68.0299 35.6405 68.0602L35.7005 68.1302C35.9178 68.4106 35.9746 68.7976 35.8584 69.2063C35.7421 69.615 35.4624 70.012 35.0805 70.3102L34.9105 70.4502C34.7209 70.5985 34.5117 70.7181 34.2949 70.8019C34.0781 70.8857 33.8579 70.9322 33.6471 70.9387C33.4362 70.9453 33.2387 70.9116 33.066 70.8398C32.8933 70.768 32.7487 70.6594 32.6405 70.5202L32.5905 70.4502C32.5655 70.4196 32.5536 70.3804 32.5573 70.3411C32.5611 70.3017 32.5802 70.2655 32.6105 70.2402L35.4305 68.0402Z" fill="#EDFDFD"/>
<path d="M42.3776 70.293C43.2668 70.939 44.1902 71.1838 44.4401 70.8398C44.6901 70.4957 44.1719 69.6931 43.2828 69.0471C42.3936 68.4011 41.4702 68.1563 41.2203 68.5004C40.9703 68.8444 41.4885 69.647 42.3776 70.293Z" fill="#EDFDFD"/>
</svg>
